<?xml version="1.0" encoding="utf-8"?>
<!DOCTYPE svg PUBLIC "-//W3C//DTD SVG 1.0//EN" "http://www.w3.org/TR/2001/REC-SVG-20010904/DTD/svg10.dtd">
<svg version="1.0" xmlns="http://www.w3.org/2000/svg" width="300px" height="190px" viewBox="0 0 300 190" preserveAspectRatio="xMidYMid meet">
 <g fill="#ffffff">
  <path d="M19 189 c0 -0.6 -3.6 -1 -8.8 -1 l-8.9 0 -0.6 -35.2 c-0.4 -19.4 -0.7 -61.7 -0.7 -94 l0 -58.8 52.5 0 c51.8 0 52.5 0 52.5 2 0 1.1 -0.7 2 -1.5 2 -1.3 0 -1.5 6.8 -1.5 55.6 l0 55.5 36.3 -0.3 c35.4 -0.3 36.3 -0.4 40.4 -2.6 13 -6.9 20.9 -20.8 18.1 -32.1 -1.4 -5.8 -7.1 -14.6 -10.9 -16.8 -4.6 -2.7 -4 -7.1 1.7 -12.8 8.5 -8.5 10.7 -18.3 6.4 -28.4 -4 -9.1 -16.2 -18.1 -24.7 -18.1 -1.6 0 -2.3 -0.6 -2.3 -2 0 -2 0.7 -2 66.5 -2 l66.5 0 0 95 0 95 -108.4 0 c-85.8 0 -108.5 -0.3 -108.9 -1.2 -0.4 -1 -0.6 -1 -0.6 0 -0.1 1.5 -63.1 1.8 -63.1 0.2z"/>
  <path d="M112.2 108.6 c0.3 -2.9 3.5 -6.7 22.2 -26 l21.8 -22.6 10.7 0 c8.1 0 11.5 0.5 14.7 1.9 15.1 6.9 18.2 30.4 5.5 43 -6.7 6.8 -8.6 7.1 -44.6 7.1 l-30.6 0 0.3 -3.4z m60.4 -22.7 c1 -1.7 -1.3 -3.6 -2.7 -2.2 -1.2 1.2 -0.4 3.3 1.1 3.3 0.5 0 1.2 -0.5 1.6 -1.1z"/>
  <path d="M105 82.5 l0 -22.5 22 0 22 0 0 3.1 c0 2.6 -2.6 5.8 -18.7 22.5 -16.8 17.2 -19.2 19.4 -22 19.4 l-3.3 0 0 -22.5z"/>
  <path d="M105 35 l0 -21 3.1 0 c2.7 0 5.7 2.5 21.5 17.6 16.8 16.1 18.4 17.9 18.4 21 l0 3.4 -21.5 0 -21.5 0 0 -21z"/>
  <path d="M134.1 34.8 c-19.8 -19.1 -22.1 -21.6 -22.1 -24.5 l0 -3.3 32.3 0 c36.2 0 37.2 0.2 43.5 7.5 4.5 5.1 5.2 7.3 5.2 17.2 0 7.3 -0.4 9.2 -2.6 13.4 -1.5 2.6 -4.5 6.1 -6.7 7.6 -3.8 2.6 -4.8 2.8 -15.8 3.1 l-11.7 0.4 -22.1 -21.4z m38.7 -3.5 c-0.2 -1 -1 -1.8 -1.8 -1.8 -0.8 0 -1.6 0.8 -1.8 1.8 -0.2 1.2 0.3 1.7 1.8 1.7 1.5 0 2 -0.5 1.8 -1.7z"/>
 </g>
 <g fill="#4ea751">
  <path d="M0 164.2 l0 -26.2 14.6 0 c17 0 22.4 1.1 25.9 5.2 4.4 5.2 4.2 14.1 -0.5 18.3 -1.9 1.8 -1.9 1.8 1 5.2 3.7 4.2 4.1 10.9 1 16 -3.2 5.4 -6 6.1 -24.9 6.9 l-17.1 0.7 0 -26.1z m37.1 17.9 c5.3 -5.4 3.2 -14.1 -4 -16.1 -2 -0.5 -9.3 -1 -16.3 -1 l-12.8 0 0 10 0 10 15.1 0 15.1 0 2.9 -2.9z m-0.6 -23.3 c1.5 -1.4 2.8 -3.8 3.1 -5.9 0.5 -3.1 0.1 -4.2 -2.4 -7 l-3 -3.4 -15.1 -0.3 -15.1 -0.4 0 9.6 0 9.6 14.9 0 c14.1 0 15.1 -0.1 17.6 -2.2z"/>
  <path d="M72.3 189.2 l-8.3 -0.3 0 -25.5 0 -25.6 17.3 0.4 c19.1 0.3 20.9 0.9 24.7 7.1 3.2 5.2 2.1 12.9 -2.4 16.6 -1.4 1.2 -1.3 1.6 1.2 4.2 1.5 1.6 3 4.3 3.3 5.9 1.5 7.2 -3.3 15.5 -9.5 16.4 -5.1 0.8 -17.6 1.2 -26.3 0.8z m29.1 -7.3 c1.7 -2 2.6 -4.2 2.6 -6.5 0 -8.6 -4 -10.4 -22.5 -10.4 l-13.5 0 0 10 0 10 15.4 0 15.4 0 2.6 -3.1z m-0.9 -23.1 c1.5 -1.4 2.8 -3.8 3.1 -5.9 0.5 -3.1 0.1 -4.2 -2.4 -7 l-3 -3.4 -14.9 0 -14.8 0 -0.3 9.3 -0.3 9.2 15 0 c14.1 0 15.1 -0.1 17.6 -2.2z"/>
  <path d="M122 187.8 c0.1 -0.7 5.6 -12.1 12.3 -25.3 9.6 -18.8 12.7 -24.1 14.3 -24.3 1.8 -0.3 3.8 3 14.8 24.7 6.9 13.7 12.6 25.2 12.6 25.5 0 0.3 -0.9 0.6 -2 0.6 -1.4 0 -2.7 -1.5 -4.5 -5 l-2.6 -5 -18.1 0.2 -18.2 0.3 -2.4 4.8 c-1.6 3 -3.1 4.7 -4.3 4.7 -1.1 0 -1.9 -0.6 -1.9 -1.2z m41.5 -15 c-0.4 -1.3 -1.1 -2.7 -1.6 -3.2 -0.4 -0.5 -6.5 -0.8 -13.5 -0.8 l-12.7 0.1 -1.3 3.1 -1.3 3 15.5 0 15.5 0 -0.6 -2.2z m-5.9 -11.5 c-4.8 -10.5 -8.2 -17.3 -8.7 -17.3 -0.6 0 -9.9 18.5 -9.9 19.6 0 0.2 4.5 0.4 10 0.4 l9.9 0 -1.3 -2.7z"/>
  <path d="M189.2 163.8 c0.3 -24.4 0.4 -25.3 2.3 -25.6 1.6 -0.2 5.9 4.8 19.5 22.3 l17.5 22.5 0.3 -22.6 c0.2 -20.7 0.4 -22.5 2 -22.2 1.5 0.3 1.7 2.6 2 25.6 l0.2 25.2 -2.5 0 c-2 0 -5.3 -3.7 -19.1 -21.5 -9.2 -11.8 -17.1 -21.2 -17.6 -20.9 -0.4 0.3 -0.8 9.9 -0.8 21.5 0 20.3 -0.1 20.9 -2 20.9 -2 0 -2 -0.5 -1.8 -25.2z"/>
  <path d="M253 163.4 c0 -23.8 0.1 -25.5 1.8 -25.2 1.5 0.3 1.7 2 2 17.1 l0.2 16.7 18.5 -17 c14.8 -13.6 19 -17 21.2 -17 2.5 0.1 1.7 1.1 -9.1 11.3 l-11.8 11.2 11.6 14.3 c10.9 13.3 11.4 14.2 8.8 14.2 -2.3 0 -4.3 -2.1 -13.1 -13 l-10.3 -12.9 -7.9 7.1 -7.9 7.1 0 5.8 c0 5.2 -0.2 5.9 -2 5.9 -1.9 0 -2 -0.7 -2 -25.6z"/>
  <path d="M99 59.6 l0 -58.5 3.3 -0.6 c1.8 -0.4 18.8 -0.5 37.7 -0.3 39.5 0.5 40.3 0.6 49.4 8.9 7.2 6.6 10 13 10 22.9 -0.1 9.3 -2.4 15.1 -8.9 21.6 -4.9 4.8 -4.9 4.8 -0.4 7.4 0.9 0.5 3.3 3.3 5.2 6.3 10.9 16.4 4.8 38.1 -13.5 47.9 -4.3 2.3 -4.7 2.3 -43.5 2.6 l-39.3 0.3 0 -58.5z m75.8 48.2 c3.3 -0.8 6 -2.5 9.4 -5.9 9.1 -9.1 10 -21.7 2.1 -30.9 -5.1 -5.9 -10.1 -8 -19.3 -8 l-7.5 0 -11.5 11.8 c-6.3 6.4 -16.4 16.8 -22.5 23 l-11 11.2 27.8 0 c18 0 29.5 -0.4 32.5 -1.2z m-43.8 -29 l15.4 -15.8 -19.2 0 -19.2 0 0 19.7 0 19.8 3.8 -4 c2.1 -2.2 10.7 -11.1 19.2 -19.7z m13.6 -26.7 c-0.3 -0.4 -8.6 -8.6 -18.6 -18.1 l-18 -17.2 0 18.1 0 18.1 18.6 0 c10.2 0 18.3 -0.4 18 -0.9z m36.1 -2.4 c5.7 -3.9 9.3 -11 9.3 -18 0 -7 -1 -9.6 -5.5 -14.6 -6.2 -6.9 -8.1 -7.2 -40.7 -6.9 l-28.7 0.3 22 21.3 22.1 21.4 8.7 -0.4 c7.7 -0.3 9.3 -0.7 12.8 -3.1z"/>
  <path d="M166.7 89.2 c-2.2 -2.4 -2.1 -6.5 0.1 -8.5 4 -3.6 10.2 -0.9 10.2 4.5 0 5.1 -6.9 7.8 -10.3 4z"/>
  <path d="M166.6 35.4 c-2.2 -2.1 -2 -6.7 0.2 -8.7 4 -3.7 10.2 -0.9 10.2 4.6 0 3.4 -2.4 5.7 -6 5.7 -1.6 0 -3.6 -0.7 -4.4 -1.6z"/>
 </g>
</svg>