<?xml version="1.0" encoding="utf-8"?>
<!DOCTYPE svg PUBLIC "-//W3C//DTD SVG 1.0//EN" "http://www.w3.org/TR/2001/REC-SVG-20010904/DTD/svg10.dtd">
<svg version="1.0" xmlns="http://www.w3.org/2000/svg" width="118px" height="118px" viewBox="0 0 118 118" preserveAspectRatio="xMidYMid meet">
 <g fill="#fdfefd" fill-opacity="0">
  <path d="M0 59 l0 -59 6.5 0 6.5 0 0 59 0 59 -6.5 0 -6.5 0 0 -59z"/>
  <path d="M81 116.5 c0 -0.9 0.9 -1.5 2.4 -1.5 1.3 0 2.6 -0.3 2.8 -0.7 0.2 -0.5 2.1 -1.7 4.3 -2.8 9.8 -4.9 17.8 -17.1 17.8 -27.1 0 -6.9 -4 -15 -9.9 -20.2 -6 -5.3 -6 -8.3 0 -14.1 5.4 -5.3 8.8 -12.8 8.8 -19.3 0 -6.1 -4.1 -14.6 -9.3 -19.3 -3.9 -3.5 -11.6 -7.5 -14.3 -7.5 -0.9 0 -1.6 -0.9 -1.6 -2 0 -1.9 0.7 -2 18 -2 l18 0 0 59 0 59 -18.5 0 c-15.8 0 -18.5 -0.2 -18.5 -1.5z"/>
  <path d="M24 107.8 c0 -3.6 1.3 -5.1 27.3 -31.5 l17 -17.3 8.7 0 c13.6 0 20.7 3.3 25.7 11.8 2.5 4.2 2.8 5.6 2.8 13.7 -0.1 10.2 -1.7 14.6 -7.7 20.1 -6.8 6.4 -6.5 6.4 -41.8 6.4 l-32 0 0 -3.2z m59.7 -22.4 c0.9 -2.3 -1.3 -4 -3.2 -2.4 -1.2 1 -1.3 1.6 -0.4 2.6 1.5 1.8 2.8 1.8 3.6 -0.2z"/>
  <path d="M16 81.5 l0 -22.5 22 0 22 0 0 3.4 c0 3 -2 5.3 -18.6 22.5 -17 17.4 -18.9 19.1 -22 19.1 l-3.4 0 0 -22.5z"/>
  <path d="M16 35 l0 -21 3.5 0 c3.1 0 5.1 1.7 21.5 17.6 16.3 16 18 18 18 21 l0 3.4 -21.5 0 -21.5 0 0 -21z"/>
  <path d="M45.7 34.8 c-19.7 -19.2 -21.8 -21.6 -21.7 -24.5 l0 -3.3 31.8 0 31.8 0 5.3 2.6 c3.4 1.7 6.2 4.1 7.9 6.7 2.5 3.8 2.7 4.8 2.7 14.7 0 9.9 -0.2 10.9 -2.8 14.8 -1.5 2.3 -4.6 5.4 -6.9 6.9 -3.8 2.6 -5.1 2.8 -15.2 3.1 l-11.1 0.3 -21.8 -21.3z m38.2 -3.2 c1.7 -2 -1.3 -4.3 -3.4 -2.6 -1.2 1 -1.3 1.6 -0.4 2.6 0.6 0.8 1.5 1.4 1.9 1.4 0.4 0 1.3 -0.6 1.9 -1.4z"/>
 </g>
 <g fill="#49a04b">
  <path d="M10 59 l0 -59.1 38.8 0.3 c38 0.3 38.8 0.3 43.5 2.6 6.8 3.3 11.9 8.2 15.2 14.9 2.5 4.9 3 6.9 2.9 13.3 0 9.3 -2.7 15.9 -8.9 22 l-4.4 4.3 4.4 3.9 c2.4 2.1 5.6 6.4 7.2 9.6 3.9 8 4 19.1 0.1 27.4 -3.2 6.9 -9.6 13.6 -16.3 16.9 l-5 2.4 -38.7 0.3 -38.8 0.3 0 -59.1z m78.3 47.4 c12.6 -6.4 17.9 -21.5 11.4 -32.7 -4.5 -7.7 -12.3 -11.7 -22.7 -11.7 l-5.7 0 -17 17.3 c-9.3 9.4 -19.3 19.8 -22.3 23 l-5.3 5.7 29.2 0 c24.9 0 29.7 -0.2 32.4 -1.6z m-40.1 -34.6 l9 -9.8 -19.1 0 -19.1 0 0 19.7 0 19.8 10.1 -10 c5.5 -5.5 14.1 -14.4 19.1 -19.7z m-3.7 -30.9 c-6.6 -6.6 -15 -14.8 -18.7 -18.1 l-6.8 -6 0 18.1 0 18.1 18.7 0 18.8 0 -12 -12.1z m46.4 8.8 c2.3 -1.5 5.3 -4.6 6.8 -6.9 2.4 -3.6 2.8 -5.1 2.8 -11.8 0 -6.6 -0.4 -8.2 -2.7 -11.7 -1.7 -2.6 -4.5 -5 -7.9 -6.7 l-5.3 -2.6 -29 0 -29.1 0.1 22 21.5 22 21.5 8.2 -0.4 c6.8 -0.3 8.8 -0.8 12.2 -3z"/>
  <path d="M77.7 89.2 c-2.1 -2.3 -2.2 -7.5 -0.1 -9.2 2.3 -2 7.5 -1.6 9 0.5 2 2.6 1.7 6.9 -0.4 8.8 -2.4 2.2 -6.5 2.1 -8.5 -0.1z"/>
  <path d="M77.6 35.1 c-2.6 -2.9 -1.8 -8.2 1.7 -10.1 2.4 -1.3 3 -1.3 5.5 0 5.5 3.1 3.4 12 -2.8 12 -1.5 0 -3.5 -0.9 -4.4 -1.9z"/>
 </g>
</svg>