<svg xmlns="http://www.w3.org/2000/svg" width="960" height="207" viewBox="0 0 960 207" version="1.1"><path d="M 184.386 11.750 L 215.271 12.029 214.750 18.524 C 214.463 22.097, 213.672 25.690, 212.992 26.510 C 211.930 27.789, 212.334 28, 215.842 28 C 220.709 28, 221.667 26.683, 222.605 18.708 C 223.180 13.812, 223.024 13.083, 221.191 12.102 C 219.784 11.349, 208.741 11.074, 186.316 11.235 L 153.500 11.470 184.386 11.750 M 255.977 11.870 L 262.455 12.500 271.281 33.500 C 276.135 45.050, 283.232 61.925, 287.053 71 C 290.873 80.075, 293.999 88.025, 293.999 88.667 C 294 89.308, 293.438 90.060, 292.750 90.338 C 292.063 90.615, 292.850 90.874, 294.500 90.913 C 297.488 90.983, 297.501 90.959, 297.763 84.836 C 298.042 78.316, 298.768 80.324, 280.489 37 C 278.749 32.875, 275.873 26.043, 274.098 21.819 C 272.323 17.594, 270.281 13.648, 269.560 13.050 C 268.840 12.452, 264.032 11.800, 258.875 11.602 C 251.927 11.334, 251.177 11.404, 255.977 11.870 M 451.250 11.750 L 494 12.021 494 16.362 C 494 18.749, 493.506 22.119, 492.902 23.851 L 491.804 27 473.482 27 L 455.159 27 454.634 29.750 C 454.345 31.263, 452.050 44.425, 449.535 59 C 447.019 73.575, 444.315 86.737, 443.527 88.250 L 442.093 91 445.924 91 C 448.031 91, 450.275 90.374, 450.910 89.609 C 451.545 88.844, 453.441 80.406, 455.124 70.859 C 456.807 61.311, 459.193 47.875, 460.425 41 L 462.666 28.500 480.810 28.228 C 501.381 27.919, 500.352 28.367, 501.571 19.180 C 502.733 10.419, 506.006 10.967, 454.128 11.239 L 408.500 11.478 451.250 11.750 M 704.287 11.732 C 730.894 11.988, 735.154 12.238, 735.664 13.567 C 736.496 15.734, 734.245 26.226, 732.744 27.179 C 732.018 27.640, 733.218 27.976, 735.628 27.985 C 737.898 27.993, 740.219 27.437, 740.785 26.750 C 742.498 24.671, 744.164 13.764, 742.954 12.553 C 742.260 11.858, 730.265 11.489, 707.701 11.467 L 673.500 11.435 704.287 11.732 M 809.991 13.291 C 821.518 18.960, 823.241 34.217, 813.339 42.933 C 810.798 45.170, 808.264 47, 807.709 47 C 807.154 47, 808.455 48.289, 810.600 49.864 C 820.743 57.314, 823.017 63.724, 819.344 74.504 C 817.049 81.241, 810.891 87.171, 803.964 89.318 L 798.500 91.011 805.331 90.536 C 817.294 89.703, 825.560 82.796, 828.082 71.525 C 829.868 63.543, 828.267 58.879, 821.532 52.450 L 816.242 47.401 820.127 44.139 C 822.264 42.345, 824.737 39.476, 825.622 37.765 C 828.720 31.773, 827.184 20.400, 822.707 16.195 C 819.554 13.233, 813.720 10.993, 809.282 11.041 L 805.500 11.082 809.991 13.291 M 391.646 13.236 C 392.601 14.781, 392.217 20.470, 390.869 24.750 L 389.845 28 358.422 28 C 328.333 28, 326.915 28.085, 325 30 C 322.574 32.426, 322.337 38.194, 324.571 40.429 C 325.671 41.528, 327.848 41.959, 331.821 41.864 C 334.945 41.789, 336.375 41.526, 335 41.279 C 331.489 40.649, 330.800 39.713, 330.800 35.573 C 330.800 28.825, 329.912 29.002, 363.872 28.985 C 381.097 28.976, 395.146 28.561, 395.977 28.035 C 397.400 27.135, 400.196 14.310, 399.308 12.750 C 399.074 12.338, 397.082 12, 394.882 12 C 391.961 12, 391.088 12.333, 391.646 13.236 M 531.877 12.865 C 535.377 15.178, 528.538 61.203, 522.574 75.477 L 521.138 78.913 513.319 79.255 L 505.500 79.598 514.125 79.799 C 525.764 80.070, 528.910 79.347, 530.180 76.109 C 534.648 64.724, 539.783 36.836, 540.235 21.500 L 540.500 12.500 535.500 12.228 C 532.235 12.050, 530.978 12.271, 531.877 12.865 M 589.750 12.662 C 591.532 13.381, 591.330 16.180, 588.450 30.669 C 585.635 44.837, 580.598 58.497, 573.717 70.624 L 569.248 78.500 560.874 79.064 L 552.500 79.627 562.500 79.714 C 568 79.762, 573.625 79.494, 575 79.120 C 576.993 78.577, 578.868 75.706, 584.243 64.969 C 587.951 57.561, 592.116 47.450, 593.499 42.500 C 596.253 32.644, 599.084 15.383, 598.288 13.309 C 597.968 12.473, 596.107 12.029, 593.143 12.079 C 590.589 12.122, 589.063 12.385, 589.750 12.662 M 650.964 12.956 C 654.421 15.143, 646.828 40.671, 638.791 53.881 C 636.576 57.521, 632.229 63.599, 629.132 67.386 C 626.034 71.174, 622.740 75.224, 621.811 76.386 C 620.366 78.194, 618.699 78.583, 610.311 79.072 L 600.500 79.644 611 79.816 C 625.848 80.060, 627.265 79.478, 635 69.959 C 647.821 54.180, 654.490 40.771, 658.486 22.739 C 659.432 18.471, 659.948 14.308, 659.634 13.489 C 659.237 12.454, 657.604 12.005, 654.281 12.015 C 650.958 12.026, 649.946 12.313, 650.964 12.956 M 761.535 27.250 C 760.724 29.767, 759 39.154, 759 41.049 C 759 42.915, 759.733 42.990, 775.750 42.783 C 791.971 42.572, 792.093 42.555, 779.625 42.252 L 766.751 41.938 767.431 36.719 C 768.795 26.258, 767.620 27.101, 781.351 26.746 C 793.101 26.443, 792.982 26.425, 777.719 26.216 C 765.819 26.053, 761.838 26.307, 761.535 27.250 M 199.728 27.722 C 201.503 27.943, 204.653 27.946, 206.728 27.730 C 208.802 27.513, 207.350 27.333, 203.500 27.328 C 199.650 27.324, 197.952 27.501, 199.728 27.722 M 411.750 27.743 C 415.738 27.932, 422.262 27.932, 426.250 27.743 C 430.238 27.553, 426.975 27.397, 419 27.397 C 411.025 27.397, 407.762 27.553, 411.750 27.743 M 719.776 27.733 C 722.128 27.945, 725.728 27.942, 727.776 27.727 C 729.824 27.512, 727.900 27.339, 723.500 27.343 C 719.100 27.346, 717.424 27.522, 719.776 27.733 M 161.558 30.250 C 158.422 44.962, 158.503 47.010, 162.219 46.985 C 165.712 46.961, 166.635 45.889, 167.363 41 C 167.732 38.525, 168.416 34.587, 168.883 32.250 L 169.731 28 165.885 28 C 162.704 28, 161.955 28.390, 161.558 30.250 M 680.584 28.865 C 680.290 29.340, 679.751 32.265, 679.387 35.365 L 678.725 41 682.921 41 C 685.230 41, 686.889 40.629, 686.608 40.175 C 686.328 39.722, 686.693 36.797, 687.418 33.675 L 688.737 28 684.928 28 C 682.832 28, 680.878 28.389, 680.584 28.865 M 238.750 42.378 C 233.387 49.749, 229 56.055, 229 56.390 C 229 56.726, 235.863 56.910, 244.250 56.801 L 259.500 56.601 248.313 56.051 L 237.127 55.500 244.037 46 C 251.031 36.384, 252.010 33.758, 249.750 30.679 C 248.650 29.180, 247.327 30.587, 238.750 42.378 M 721.903 40.919 C 722.980 41.600, 723.156 43.233, 722.663 47.949 C 722.310 51.328, 721.550 54.971, 720.975 56.046 C 720.033 57.807, 720.266 58, 723.342 58 C 727.751 58, 728.822 56.579, 730.166 48.947 C 731.165 43.274, 731.096 42.544, 729.445 41.336 C 728.440 40.601, 726.016 40.007, 724.059 40.015 C 721.595 40.026, 720.932 40.304, 721.903 40.919 M 378.316 43.449 C 386.358 46.317, 389.944 52.504, 389.978 63.568 C 390.019 76.743, 385.970 85.047, 377.754 88.640 C 373.991 90.285, 369.688 90.566, 340.500 91.073 L 307.500 91.646 343.500 91.479 C 383.466 91.294, 385.168 91.067, 391.118 85.118 C 395.291 80.945, 396.836 76.536, 397.677 66.407 C 398.951 51.040, 392.031 41.924, 379.185 42.044 L 374.500 42.088 378.316 43.449 M 193.683 52.494 C 192.653 63.518, 193.648 63, 173.532 63 C 157.831 63, 156.083 63.171, 155.606 64.750 C 155.316 65.713, 154.339 71, 153.437 76.500 C 152.534 82, 151.156 87.513, 150.375 88.750 C 148.991 90.942, 149.055 91, 152.855 91 C 155 91, 157.281 90.367, 157.923 89.593 C 158.565 88.819, 160.052 82.744, 161.227 76.093 L 163.364 64 179.991 64 C 191.716 64, 197.121 63.631, 198.324 62.750 C 200.214 61.365, 202.687 50.234, 201.685 47.622 C 201.281 46.568, 199.877 46, 197.676 46 L 194.289 46 193.683 52.494 M 758.368 56.214 C 757.955 56.882, 756.872 61.841, 755.961 67.233 L 754.304 77.038 756.573 77.608 C 760.709 78.646, 762.267 77.721, 762.647 74 C 762.844 72.075, 763.621 67.264, 764.375 63.308 C 765.565 57.065, 765.554 56.043, 764.291 55.558 C 761.869 54.629, 759.162 54.929, 758.368 56.214 M 340.304 58.747 C 346.247 58.924, 355.697 58.923, 361.304 58.745 C 366.912 58.567, 362.050 58.422, 350.500 58.423 C 338.950 58.424, 334.362 58.570, 340.304 58.747 M 674.154 64.900 C 673.527 68.695, 672.738 72.520, 672.400 73.400 C 671.847 74.842, 674.366 75, 697.834 75 C 713.938 75, 724.115 75.378, 724.494 75.990 C 725.558 77.713, 723.072 88.440, 721.305 89.750 C 719.860 90.821, 720.209 91, 723.737 91 C 726.028 91, 728.510 90.348, 729.327 89.530 C 731.448 87.409, 732.642 76.022, 730.862 74.894 C 730.113 74.419, 718.314 74.024, 704.643 74.015 C 683.993 74.003, 679.875 73.768, 680.313 72.628 C 680.602 71.873, 681.158 69.061, 681.547 66.378 C 681.937 63.695, 682.664 60.712, 683.163 59.750 C 683.961 58.211, 683.540 58, 679.682 58 L 675.293 58 674.154 64.900 M 213.245 77.747 C 210.635 81.457, 207.083 85.957, 205.350 87.747 L 202.200 91 205.666 91 C 210.776 91, 212.283 89.822, 218.553 80.925 C 221.685 76.480, 225.205 72.458, 226.374 71.985 C 227.973 71.340, 227.197 71.111, 223.245 71.063 L 217.989 71 213.245 77.747 M 515.543 90.252 C 516.345 92.341, 508.875 103.926, 502.500 110.481 C 498.483 114.612, 494.021 117.903, 489 120.438 C 482.456 123.743, 481.999 124.138, 485.418 123.536 C 496.465 121.592, 506.751 115.631, 513.297 107.379 C 519.267 99.853, 524.312 91.313, 523.532 90.052 C 522.566 88.489, 514.940 88.681, 515.543 90.252 M 558.419 89.869 C 559.240 91.197, 548.179 101.280, 540.415 106.282 C 530.595 112.609, 525.860 114.878, 514.500 118.701 C 502.679 122.680, 508.301 122.372, 522 118.291 C 538.043 113.511, 549.325 107.196, 560.645 96.658 C 566.860 90.874, 567.041 89, 561.382 89 C 559.457 89, 558.124 89.391, 558.419 89.869 M 602.877 89.863 C 604.651 91.038, 596.542 96.352, 582 103.546 C 557.161 115.833, 525.458 123.224, 486 125.927 C 478.711 126.426, 476.697 126.758, 480.500 126.835 C 505.691 127.339, 549.836 119.948, 572.762 111.388 C 588.706 105.434, 611.491 92.989, 610.723 90.652 C 610.515 90.019, 608.355 89.376, 605.922 89.225 C 602.994 89.043, 601.965 89.258, 602.877 89.863 M 787.250 90.728 C 789.313 90.944, 792.688 90.944, 794.750 90.728 C 796.813 90.513, 795.125 90.336, 791 90.336 C 786.875 90.336, 785.188 90.513, 787.250 90.728 M 821.152 138.885 C 819.179 140.135, 820.177 143.451, 822.633 143.803 C 825.140 144.162, 826.561 141.381, 824.895 139.373 C 823.577 137.785, 823.005 137.710, 821.152 138.885 M 800.607 140.582 C 799.616 143.165, 799.913 145.802, 801.250 146.286 C 802.250 146.648, 802.250 147.162, 801.250 148.856 C 799.764 151.373, 799.558 163, 801 163 C 801.550 163, 802 163.927, 802 165.060 C 802 166.830, 802.530 167.077, 805.750 166.810 C 809.955 166.462, 811.086 163.725, 807.250 163.180 C 805.186 162.887, 805 162.335, 805 156.500 C 805 150.665, 805.186 150.113, 807.250 149.820 C 808.487 149.644, 809.500 148.825, 809.500 148 C 809.500 147.175, 808.487 146.056, 807.250 145.513 C 805.698 144.832, 805 143.669, 805 141.763 C 805 139.719, 804.508 139, 803.107 139 C 802.066 139, 800.941 139.712, 800.607 140.582 M 509.549 145.920 C 509.237 146.426, 510.223 147.814, 511.740 149.004 C 514.220 150.948, 514.551 151.945, 515 158.834 C 515.446 165.667, 515.717 166.500, 517.500 166.500 C 519.315 166.500, 519.527 165.736, 519.791 158.245 C 520.060 150.582, 519.902 149.811, 517.586 147.495 C 515.114 145.023, 510.645 144.147, 509.549 145.920 M 554.313 145.641 C 553.046 146.157, 556.203 150, 557.893 150 C 559.203 150, 560 152.646, 560 156.995 C 560 160.339, 559.465 161.220, 555.803 163.913 C 553.495 165.611, 550.570 167, 549.303 167 C 547.567 167, 547 167.566, 547 169.300 C 547 170.565, 547.529 172.129, 548.176 172.776 C 549.807 174.407, 552 172.458, 552 169.378 C 552 167.338, 552.486 167, 555.418 167 C 557.298 167, 559.565 166.720, 560.455 166.379 C 562.976 165.411, 565 160.555, 565 155.473 C 565 148.610, 559.484 143.536, 554.313 145.641 M 580 145.970 C 580 146.504, 581.350 147.938, 583 149.158 C 586.281 151.584, 586.834 153, 584.500 153 C 583.567 153, 583 153.944, 583 155.500 C 583 157.056, 583.567 158, 584.500 158 C 585.325 158, 586 158.620, 586 159.378 C 586 160.135, 585.325 161.315, 584.500 162 C 583.675 162.685, 583 163.914, 583 164.731 C 583 165.807, 582.327 166.048, 580.561 165.605 C 579.220 165.268, 577.834 165.459, 577.481 166.030 C 577.057 166.717, 579.143 166.972, 583.670 166.784 L 590.500 166.500 590.791 158.245 C 591.060 150.582, 590.902 149.811, 588.586 147.495 C 586.108 145.017, 580 143.932, 580 145.970 M 605.500 146 C 605.160 146.550, 605.359 147, 605.941 147 C 606.523 147, 607 147.619, 607 148.375 C 607 150.130, 613.011 151.396, 614.438 149.942 C 615.191 149.173, 614.814 148.298, 613.139 146.929 C 610.609 144.861, 606.512 144.363, 605.500 146 M 629.032 145.750 C 629.176 149.144, 637.226 152.459, 638.331 149.579 C 639.095 147.590, 635.388 145, 631.777 145 C 630.250 145, 629.014 145.338, 629.032 145.750 M 654.679 145.654 C 654.319 146.014, 655.819 147.628, 658.013 149.241 C 661.412 151.741, 661.998 152.713, 661.985 155.837 C 661.965 160.433, 661.235 161.570, 656.394 164.545 C 652.760 166.778, 652.667 166.947, 655 167.084 C 659.984 167.376, 661.548 166.842, 664.250 163.931 C 668.904 158.917, 667.602 149.397, 661.855 146.425 C 658.930 144.912, 655.761 144.572, 654.679 145.654 M 700.750 148.015 C 703.984 150.958, 704.906 153, 703 153 C 702.450 153, 702 154.125, 702 155.500 C 702 156.875, 702.450 158, 703 158 C 704.353 158, 704.258 160.034, 702.750 163.350 C 701.804 165.431, 700.947 165.998, 699.226 165.684 C 697.976 165.455, 696.741 165.611, 696.482 166.029 C 695.714 167.272, 698.954 168.051, 701.829 167.315 C 703.298 166.939, 705.625 166.601, 707 166.565 C 709.435 166.502, 709.508 166.286, 709.791 158.245 C 710.060 150.582, 709.902 149.811, 707.586 147.495 C 705.785 145.695, 704.034 145.008, 701.295 145.029 L 697.500 145.059 700.750 148.015 M 719.247 145.827 C 718.265 146.450, 718.398 147.801, 719.862 152.061 L 721.731 157.500 723.052 153.157 C 724.749 147.575, 722.704 143.635, 719.247 145.827 M 750 145.970 C 750 146.504, 751.350 147.938, 753 149.158 C 756.281 151.584, 756.834 153, 754.500 153 C 752.424 153, 752.612 156.680, 754.750 157.897 C 756.222 158.735, 756.297 159.180, 755.221 160.697 C 754.517 161.688, 753.668 163.324, 753.333 164.331 C 752.956 165.464, 752.058 165.987, 750.973 165.703 C 750.010 165.451, 748.609 165.644, 747.861 166.131 C 747.018 166.679, 749.167 166.918, 753.500 166.758 L 760.500 166.500 760.791 158.245 C 761.060 150.582, 760.902 149.811, 758.586 147.495 C 756.108 145.017, 750 143.932, 750 145.970 M 778.726 145.608 C 777.851 146.483, 780.250 150, 781.721 150 C 783.253 150, 783.909 152.733, 784.243 160.500 C 784.468 165.748, 784.751 166.500, 786.500 166.500 C 788.279 166.500, 788.533 165.733, 788.800 159.577 C 788.964 155.769, 788.597 151.440, 787.982 149.957 C 786.526 146.442, 780.651 143.682, 778.726 145.608 M 821.034 146.459 C 820.343 147.292, 820.032 151.337, 820.211 157.149 C 820.476 165.737, 820.663 166.500, 822.500 166.500 C 824.350 166.500, 824.521 165.739, 824.784 156.370 C 825.012 148.222, 824.781 146.130, 823.607 145.679 C 822.803 145.371, 821.646 145.722, 821.034 146.459 M 475.667 146.667 C 474.717 147.616, 474.868 161.244, 475.845 162.784 C 476.294 163.492, 477.409 163.780, 478.330 163.427 C 479.706 162.899, 480 161.311, 480 154.393 C 480 146.921, 479.799 146, 478.167 146 C 477.158 146, 476.033 146.300, 475.667 146.667 M 487.667 146.667 C 487.300 147.033, 487 150.147, 487 153.586 C 487 160.834, 484.598 166.344, 481.751 165.628 C 480.789 165.386, 479.738 165.616, 479.414 166.139 C 479.060 166.713, 481.338 166.973, 485.163 166.795 L 491.500 166.500 491.785 156.250 C 492.048 146.806, 491.923 146, 490.202 146 C 489.174 146, 488.033 146.300, 487.667 146.667 M 731.692 146.750 C 731.458 147.162, 730.478 149.915, 729.514 152.866 C 728.321 156.521, 727.499 157.808, 726.938 156.900 C 726.338 155.928, 725.817 156.352, 725.012 158.468 C 723.586 162.219, 724.044 165.018, 726.309 166.398 C 727.749 167.276, 728.404 167.114, 729.525 165.605 C 730.989 163.634, 736 149.427, 736 147.247 C 736 145.912, 732.403 145.498, 731.692 146.750 M 503.210 157.675 C 503.475 165.737, 503.673 166.500, 505.500 166.500 C 507.343 166.500, 507.500 165.833, 507.500 158 C 507.500 149.902, 507.392 149.485, 505.210 149.175 C 502.954 148.855, 502.924 148.980, 503.210 157.675 M 547.667 149.667 C 547.300 150.033, 547 153.197, 547 156.698 C 547 161.554, 547.371 163.205, 548.567 163.664 C 549.429 163.995, 550.610 163.790, 551.192 163.208 C 552.360 162.040, 552.650 151.861, 551.566 150.107 C 550.806 148.877, 548.695 148.638, 547.667 149.667 M 601 151.332 C 601 153.031, 602.356 154.542, 606 156.903 C 608.750 158.685, 611 160.489, 611 160.912 C 611 161.335, 609.401 162.819, 607.446 164.209 C 604.520 166.291, 604.210 166.819, 605.696 167.196 C 608.967 168.027, 614.025 166.039, 615.200 163.461 C 616.732 160.098, 615.017 156.573, 610.793 154.407 C 608.982 153.477, 606.427 151.881, 605.115 150.859 C 601.965 148.404, 601 148.514, 601 151.332 M 624.630 150.523 C 624.308 151.360, 624.823 152.707, 625.773 153.516 C 635.748 162.010, 635.591 161.826, 633.576 162.604 C 632.518 163.013, 630.873 164.127, 629.919 165.081 C 628.323 166.677, 628.317 166.848, 629.842 167.225 C 632.725 167.939, 636.254 166.541, 638.221 163.906 C 639.830 161.751, 639.938 160.957, 638.922 158.728 C 638.263 157.281, 636.170 155.360, 634.272 154.459 C 632.374 153.558, 629.962 151.962, 628.911 150.911 C 626.603 148.603, 625.408 148.495, 624.630 150.523 M 648.918 151.677 C 647.751 154.706, 648.257 161.657, 649.754 163.154 C 650.255 163.655, 651.313 163.817, 652.104 163.513 C 653.170 163.105, 653.525 161.214, 653.472 156.235 C 653.413 150.738, 653.090 149.448, 651.703 149.181 C 650.601 148.969, 649.624 149.845, 648.918 151.677 M 772.211 157.750 C 772.475 165.737, 772.674 166.500, 774.500 166.500 C 776.307 166.500, 776.529 165.735, 776.795 158.587 C 777.091 150.650, 776.493 149.054, 773.211 149.015 C 772.234 149.004, 771.992 151.120, 772.211 157.750 M 574 160.500 C 574 165.998, 577.974 164.954, 578.759 159.250 C 579.010 157.427, 578.587 157, 576.534 157 C 574.305 157, 574 157.421, 574 160.500 M 692.667 157.667 C 691.476 158.857, 691.951 164.001, 693.250 163.985 C 695.576 163.956, 697.309 162.202, 697.587 159.595 C 697.812 157.484, 697.441 157, 695.598 157 C 694.353 157, 693.033 157.300, 692.667 157.667 M 744 160.500 C 744 162.705, 744.481 164, 745.300 164 C 747.303 164, 749 161.845, 749 159.300 C 749 157.513, 748.442 157, 746.500 157 C 744.310 157, 744 157.433, 744 160.500" stroke="none" fill="#0a0a09" fill-rule="evenodd"/><path d="M 746.037 12.769 C 743.694 14.666, 743.231 16.723, 735.519 59.500 C 734.626 64.450, 733.498 70.300, 733.012 72.500 C 732.525 74.700, 731.820 79.268, 731.446 82.652 C 730.809 88.396, 730.917 88.885, 733.071 90.038 C 736.280 91.755, 799.696 90.684, 805.500 88.814 C 810.948 87.059, 817.305 80.489, 819.344 74.504 C 823.017 63.724, 820.743 57.314, 810.600 49.864 C 808.455 48.289, 807.154 47, 807.709 47 C 808.264 47, 810.798 45.170, 813.339 42.933 C 823.241 34.217, 821.518 18.960, 809.991 13.291 C 805.682 11.172, 804.336 11.081, 776.861 11.041 C 750.923 11.004, 748.016 11.167, 746.037 12.769 M 143.059 14.250 C 142.065 16.739, 141.576 19.330, 136.507 49 C 134.581 60.275, 132.277 73.654, 131.388 78.730 C 130.498 83.807, 130.033 88.644, 130.354 89.480 C 130.816 90.684, 132.809 91, 139.946 91 C 150.946 91, 151.081 90.855, 153.437 76.500 C 154.339 71, 155.316 65.712, 155.606 64.750 C 156.083 63.171, 157.831 63, 173.532 63 C 193.665 63, 192.652 63.533, 193.693 52.388 L 194.309 45.788 176.988 46.144 C 164.460 46.401, 159.560 46.179, 159.280 45.340 C 158.896 44.189, 161.452 29.192, 162.141 28.551 C 162.338 28.367, 173.673 27.997, 187.329 27.729 C 202.338 27.435, 212.565 26.835, 213.187 26.213 C 213.753 25.647, 214.454 22.218, 214.745 18.592 L 215.274 12 179.615 12 L 143.957 12 143.059 14.250 M 225.566 30.719 C 218.098 41.048, 209.629 52.777, 206.744 56.783 C 203.860 60.788, 199.223 67.157, 196.439 70.935 C 185.149 86.260, 183.480 89.059, 185.041 90.047 C 185.844 90.554, 190.033 90.976, 194.350 90.985 C 201.905 90.999, 202.319 90.878, 205.350 87.747 C 207.083 85.957, 210.641 81.449, 213.258 77.728 L 218.016 70.962 240.758 71.231 L 263.500 71.500 266.643 79.935 C 268.372 84.575, 270.595 88.962, 271.584 89.685 C 272.745 90.534, 276.477 91, 282.109 91 C 291.389 91, 294 90.482, 293.999 88.643 C 293.999 88.014, 290.873 80.075, 287.053 71 C 283.232 61.925, 276.133 45.050, 271.277 33.500 L 262.448 12.500 250.795 12.219 L 239.142 11.938 225.566 30.719 M 322.564 13.146 C 314.184 15.062, 308.873 21.530, 306.903 32.221 C 304.711 44.119, 308.301 53.139, 316.611 56.611 C 319.149 57.671, 325.877 58, 345.034 58 C 360.422 58, 370.880 58.400, 372.066 59.035 C 373.637 59.876, 374 61.160, 374 65.880 C 374 75.466, 375.984 75, 335.206 75 C 295.086 75, 298.393 74.156, 297.825 84.543 L 297.500 90.500 334.180 90.762 C 369.167 91.012, 371.115 90.929, 376.388 88.956 C 382.982 86.489, 386.399 82.761, 388.475 75.771 C 390.594 68.636, 390.424 57.519, 388.119 52.500 C 383.756 42.998, 380.505 42.099, 350.321 42.044 C 329.714 42.006, 325.911 41.768, 324.571 40.429 C 322.337 38.194, 322.574 32.426, 325 30 C 326.915 28.085, 328.333 28, 358.422 28 L 389.845 28 390.869 24.750 C 392.212 20.484, 392.602 14.783, 391.654 13.249 C 390.744 11.777, 328.959 11.685, 322.564 13.146 M 400.056 13.895 C 399.499 14.937, 398.747 18.301, 398.386 21.371 L 397.730 26.953 415.615 27.226 L 433.500 27.500 433.176 30.500 C 432.998 32.150, 431.054 43.400, 428.857 55.500 C 426.660 67.600, 424.780 80.425, 424.681 84 L 424.500 90.500 433.202 90.788 C 441.347 91.058, 441.994 90.930, 443.309 88.788 C 444.082 87.530, 446.827 74.350, 449.409 59.500 C 451.991 44.650, 454.341 31.262, 454.631 29.750 L 455.159 27 473.482 27 L 491.804 27 492.902 23.851 C 493.506 22.119, 494 18.744, 494 16.351 L 494 12 447.535 12 C 402.953 12, 401.029 12.077, 400.056 13.895 M 503.550 13.250 C 503.337 13.938, 502.889 19.900, 502.554 26.500 C 501.933 38.772, 500.931 48.129, 498.421 65.119 C 496.155 80.456, 495.040 79, 509.051 79 L 521.102 79 522.556 75.520 C 528.531 61.220, 535.392 15.129, 531.877 12.903 C 529.600 11.461, 504.007 11.774, 503.550 13.250 M 558.205 12.852 C 557.448 13.333, 556.545 17.164, 556.029 22.087 C 554.008 41.363, 549.949 57.105, 542.575 74.273 C 541.263 77.327, 541.207 78.142, 542.280 78.554 C 543.009 78.834, 549.374 78.936, 556.424 78.781 L 569.242 78.500 573.714 70.624 C 580.595 58.506, 585.634 44.843, 588.450 30.669 C 591.429 15.680, 591.550 13.425, 589.418 12.607 C 587.037 11.693, 559.694 11.908, 558.205 12.852 M 615.750 13.080 C 614.788 13.641, 614 15.174, 614 16.488 C 614 22.869, 607.158 46.784, 602.987 54.983 C 601.443 58.017, 597.665 64.241, 594.590 68.814 C 591.516 73.387, 589 77.549, 589 78.064 C 589 78.604, 595.369 79, 604.048 79 L 619.095 79 621.677 76.250 C 627.069 70.507, 634.915 60.252, 638.791 53.881 C 646.828 40.671, 654.421 15.143, 650.964 12.956 C 648.964 11.692, 617.947 11.801, 615.750 13.080 M 662.235 13.250 C 661.282 14.431, 659.310 25.073, 651.834 69.385 C 648.742 87.709, 648.703 88.309, 650.515 89.635 C 653.121 91.540, 718.744 91.647, 721.305 89.750 C 723.072 88.440, 725.558 77.713, 724.494 75.990 C 724.115 75.378, 713.938 75, 697.834 75 C 674.366 75, 671.847 74.842, 672.400 73.400 C 672.738 72.520, 673.527 68.695, 674.154 64.900 L 675.293 58 697.611 58 C 723.346 58, 721.635 58.717, 722.683 47.494 L 723.289 41 701.007 41 L 678.725 41 679.399 35.263 C 679.770 32.108, 680.394 29.232, 680.787 28.872 C 681.179 28.512, 693.135 27.971, 707.356 27.669 C 721.577 27.368, 733.389 26.944, 733.606 26.727 C 734.517 25.816, 736.206 14.978, 735.659 13.553 C 735.135 12.189, 730.696 12, 699.154 12 C 671.632 12, 663.009 12.292, 662.235 13.250 M 761.535 27.250 C 760.712 29.807, 759 39.168, 759 41.114 C 759 43.070, 759.518 43.120, 776.589 42.814 L 794.178 42.500 796.589 39.694 C 798.132 37.899, 799 35.643, 799 33.430 C 799 30.600, 798.408 29.610, 795.750 27.989 C 792.885 26.242, 790.688 26.007, 777.219 26.004 C 765.872 26.001, 761.834 26.322, 761.535 27.250 M 238.726 42.416 C 233.377 49.766, 229 56.055, 229 56.390 C 229 56.726, 235.710 57, 243.910 57 L 258.820 57 255.290 47.250 C 253.349 41.888, 251.399 35.982, 250.958 34.128 C 250.517 32.273, 249.772 30.372, 249.304 29.904 C 248.835 29.435, 244.079 35.062, 238.726 42.416 M 758.247 56.410 C 756.800 58.751, 754.338 76.915, 755.413 77.314 C 756.011 77.535, 764.639 77.430, 774.588 77.080 C 795.316 76.350, 797.189 75.727, 799.013 68.954 C 800.786 62.366, 798.239 57.430, 792.613 56.554 C 785.959 55.518, 758.868 55.405, 758.247 56.410 M 494.315 90.217 C 493.773 90.923, 492.082 95.100, 490.558 99.500 C 485.705 113.502, 476.261 125, 469.614 125 C 468.726 125, 468 125.465, 468 126.034 C 468 126.672, 469.821 126.876, 472.750 126.567 C 475.363 126.290, 482.675 125.796, 489 125.468 C 513.774 124.182, 541.515 119.035, 562.500 111.830 C 579.472 106.003, 605.759 91.728, 602.877 89.903 C 602.120 89.423, 596.276 89.024, 589.891 89.015 L 578.282 89 569.546 95.438 C 564.742 98.979, 557.366 103.660, 553.155 105.842 C 540.145 112.582, 518.979 120.061, 509 121.444 C 505.775 121.891, 507.333 121.114, 514.500 118.701 C 525.860 114.878, 530.595 112.609, 540.415 106.282 C 548.179 101.280, 559.240 91.197, 558.419 89.869 C 558.124 89.391, 552.766 89, 546.512 89 C 534.043 89, 535.008 88.591, 528.556 96.603 C 519.467 107.890, 503.884 118.335, 490.068 122.401 C 481.455 124.937, 481.156 124.286, 489.116 120.326 C 497.563 116.122, 506.514 107.596, 511.857 98.663 C 517.250 89.646, 517.182 89.547, 505.400 89.217 C 498.079 89.011, 495.029 89.286, 494.315 90.217 M 794.667 139.667 C 794.300 140.033, 794 141.608, 794 143.167 C 794 145.019, 793.480 146, 792.500 146 C 791.675 146, 791 146.689, 791 147.531 C 791 148.374, 791.675 149.322, 792.500 149.638 C 793.643 150.077, 794 151.944, 794 157.485 C 794 165.396, 795.116 167.406, 799.185 166.827 C 802.116 166.409, 802.984 163, 800.159 163 C 798.414 163, 798.130 162.208, 797.835 156.535 C 797.533 150.709, 797.697 150.041, 799.490 149.785 C 802.491 149.355, 802.743 146, 799.774 146 C 797.652 146, 797.445 145.631, 797.810 142.500 C 798.110 139.928, 797.836 139, 796.776 139 C 795.983 139, 795.033 139.300, 794.667 139.667 M 813.323 140.601 C 812.690 142.250, 814.727 144.209, 816.500 143.655 C 817.050 143.484, 817.644 142.366, 817.820 141.172 C 818.061 139.530, 817.626 139, 816.038 139 C 814.883 139, 813.661 139.720, 813.323 140.601 M 469 154.427 C 469 161.667, 469.311 163.311, 471 165 C 473.067 167.067, 478.432 167.728, 479.473 166.044 C 479.798 165.518, 480.770 165.358, 481.633 165.689 C 484.168 166.662, 484.968 164.048, 484.985 154.750 C 484.999 146.662, 484.849 146, 483 146 C 481.215 146, 480.999 146.671, 480.986 152.250 C 480.964 162.377, 479.319 165.311, 474.969 162.984 C 473.416 162.152, 473.032 160.612, 472.792 154.248 C 472.549 147.823, 472.205 146.465, 470.750 146.188 C 469.193 145.890, 469 146.801, 469 154.427 M 497 156.752 C 497 166.112, 497.174 167.113, 498.750 166.813 C 500.197 166.537, 500.552 165.188, 500.798 159.034 C 501.111 151.219, 502.054 149, 505.063 149 C 507.768 149, 508.449 150.728, 509 159 C 509.385 164.778, 509.844 166.500, 511 166.500 C 512.176 166.500, 512.562 164.864, 512.789 158.934 C 513.035 152.494, 512.765 150.971, 510.978 148.699 C 509.090 146.299, 508.281 146.047, 502.939 146.194 L 497 146.358 497 156.752 M 541 159.705 C 541 171.966, 541.154 173.118, 542.750 172.815 C 543.892 172.599, 544.607 171.383, 544.808 169.314 C 545.096 166.353, 545.326 166.179, 548.308 166.663 C 555.079 167.761, 559.706 159.700, 557.004 151.513 C 555.527 147.038, 553.800 146.148, 546.716 146.212 L 541 146.263 541 159.705 M 570.250 146.662 C 569.563 146.940, 569 147.801, 569 148.576 C 569 149.619, 570.196 149.922, 573.611 149.742 C 577.646 149.530, 578.333 149.794, 579.119 151.861 C 579.935 154.005, 579.798 154.166, 577.627 153.621 C 576.313 153.291, 573.824 153.514, 572.097 154.116 C 566.875 155.936, 565.338 161.338, 569 165 C 571.094 167.094, 576.437 167.720, 577.502 165.996 C 577.843 165.444, 579.220 165.268, 580.561 165.605 L 583 166.217 583 157.763 C 583 150.844, 582.668 149.010, 581.171 147.655 C 579.430 146.079, 573.117 145.505, 570.250 146.662 M 595.440 148.451 C 593.131 151.975, 594.452 154.760, 599.625 157.273 C 603.001 158.913, 604.011 159.931, 603.790 161.469 C 603.488 163.574, 602.779 163.678, 597.149 162.444 C 594.204 161.799, 593.841 161.939, 594.159 163.605 C 594.397 164.847, 595.843 165.827, 598.358 166.450 C 603.603 167.749, 607.380 165.670, 607.811 161.247 C 608.092 158.367, 607.630 157.754, 603.061 154.943 C 600.278 153.230, 598 151.403, 598 150.883 C 598 149.244, 601.029 148.692, 603.597 149.862 C 605.627 150.787, 606.177 150.704, 606.679 149.393 C 607.493 147.272, 605.329 146.034, 600.773 146.015 C 597.911 146.004, 596.673 146.569, 595.440 148.451 M 619.655 147.829 C 616.293 151.543, 617.695 154.601, 624.262 157.882 C 626.294 158.898, 627.500 160.245, 627.500 161.500 C 627.500 163.640, 625.780 163.903, 620.750 162.533 C 618.567 161.938, 618 162.120, 618 163.416 C 618 167.031, 626.851 168.149, 630.061 164.939 C 633.502 161.498, 632.315 157.929, 626.753 155 C 624.142 153.625, 622.004 151.923, 622.003 151.219 C 621.999 149.300, 624.813 148.594, 627.528 149.831 C 630.359 151.121, 631.821 149.695, 629.964 147.456 C 628.225 145.362, 621.673 145.598, 619.655 147.829 M 644.455 148.455 C 641.170 151.739, 640.927 160.471, 644.028 163.799 C 650.820 171.090, 661.412 164.044, 659.442 153.545 C 658.106 146.421, 649.433 143.476, 644.455 148.455 M 689.250 146.662 C 688.563 146.940, 688 147.854, 688 148.695 C 688 149.888, 688.738 150.084, 691.366 149.591 C 695.562 148.804, 698 149.681, 698 151.979 C 698 153.382, 697.198 153.723, 694.084 153.641 C 689.036 153.509, 686 156.122, 686 160.598 C 686 162.863, 686.692 164.371, 688.223 165.443 C 690.623 167.125, 695.548 167.540, 696.417 166.134 C 696.711 165.658, 698.088 165.485, 699.476 165.751 L 702 166.233 702 157.772 C 702 150.844, 701.668 149.010, 700.171 147.655 C 698.430 146.079, 692.117 145.505, 689.250 146.662 M 712.054 147.250 C 712.084 147.938, 713.595 152.550, 715.412 157.500 C 719.854 169.601, 721.127 169.539, 725.605 157 C 727.471 151.775, 728.999 147.162, 728.999 146.750 C 729 146.338, 728.144 146, 727.097 146 C 725.611 146, 724.730 147.531, 723.069 153 C 721.899 156.850, 720.756 160, 720.529 160 C 720.301 160, 719.101 156.850, 717.861 153 C 716.172 147.755, 715.154 146, 713.803 146 C 712.811 146, 712.024 146.563, 712.054 147.250 M 740.122 146.904 C 737.685 148.447, 740.007 150.029, 744.316 149.761 C 748.034 149.529, 748.537 149.761, 748.832 151.843 C 749.108 153.792, 748.825 154.079, 747.155 153.549 C 743.943 152.530, 738.172 155.465, 737.409 158.508 C 735.976 164.216, 740.616 168.161, 746.750 166.449 C 748.263 166.027, 750.247 165.775, 751.160 165.889 C 754.480 166.302, 754.731 151.570, 751.466 147.962 C 749.579 145.878, 742.748 145.240, 740.122 146.904 M 765.217 156.398 C 765.446 164.585, 765.784 166.500, 767 166.500 C 768.162 166.500, 768.613 164.746, 769 158.711 C 769.483 151.190, 770.486 149.031, 773.500 149.031 C 776.160 149.031, 776.924 150.988, 777.204 158.520 C 777.451 165.164, 777.789 166.533, 779.250 166.812 C 780.804 167.109, 781 166.210, 781 158.796 C 781 147.330, 780.021 146.039, 771.436 146.185 L 764.933 146.296 765.217 156.398 M 814 156.573 C 814 166.104, 814.173 167.114, 815.750 166.812 C 817.258 166.523, 817.539 165.060, 817.785 156.238 C 818.056 146.515, 817.968 146, 816.035 146 C 814.117 146, 814 146.606, 814 156.573 M 546.750 150.080 C 545.421 150.854, 545 152.415, 545 156.571 C 545 161.503, 545.258 162.161, 547.617 163.235 C 549.928 164.288, 550.456 164.155, 552.117 162.103 C 554.404 159.280, 554.555 154.237, 552.443 151.223 C 550.740 148.791, 549.419 148.526, 546.750 150.080 M 648.313 149.786 C 644.674 152.099, 644.784 160.157, 648.487 162.584 C 651.244 164.390, 653.379 163.658, 654.865 160.398 C 657.879 153.783, 653.410 146.545, 648.313 149.786 M 571.333 158.575 C 570.530 160.668, 572.130 163.385, 574.432 163.838 C 576.653 164.274, 579.873 161.354, 579.562 159.184 C 579.213 156.751, 572.231 156.235, 571.333 158.575 M 690.667 157.667 C 689.218 159.116, 690.056 162.883, 691.962 163.488 C 694.873 164.412, 698 162.328, 698 159.465 C 698 157.338, 697.543 157, 694.667 157 C 692.833 157, 691.033 157.300, 690.667 157.667 M 741.309 158.636 C 740.964 159.536, 741.139 160.998, 741.698 161.886 C 743.991 165.527, 749 163.806, 749 159.378 C 749 157.323, 748.520 157, 745.469 157 C 743.122 157, 741.727 157.549, 741.309 158.636" stroke="none" fill="#ecbb47" fill-rule="evenodd"/></svg>