<svg xmlns="http://www.w3.org/2000/svg" width="800" height="527" viewBox="0 0 800 527" version="1.1"><path d="M 520 193.114 C 493.247 196.162, 466.049 205.626, 445.500 219.037 C 434.361 226.307, 425 233.894, 425 235.653 C 425 236.467, 434.900 253.089, 447 272.590 C 459.100 292.091, 469 308.557, 469 309.180 C 469 309.804, 471.186 307.201, 473.858 303.396 C 486.967 284.729, 506.112 273.557, 529.451 270.955 C 571.900 266.222, 608.466 293.517, 618.109 337.135 C 619.858 345.049, 620.107 348.825, 619.710 361.500 C 619.151 379.369, 617.127 388.232, 610.576 401.500 C 600.283 422.345, 583.535 436.167, 561.415 442.075 L 553.329 444.234 574.890 478.987 L 596.451 513.741 602.966 511.288 C 613.309 507.395, 630.184 498.393, 639.723 491.679 C 644.550 488.282, 653.926 480.101, 660.558 473.501 C 683.692 450.477, 697.872 424.182, 705.228 390.664 C 707.184 381.752, 707.459 377.606, 707.459 357 C 707.459 336.235, 707.192 332.278, 705.169 323 C 698.038 290.290, 683.581 263.418, 661.055 241 C 647.493 227.502, 636.376 219.390, 620.004 211.043 C 589.925 195.708, 553.908 189.250, 520 193.114 M 743.500 416.099 C 710.088 420.370, 691.506 456.572, 706.580 488.027 C 722.805 521.883, 772.677 524.372, 793.001 492.340 C 797.751 484.854, 800 476.253, 800 465.576 C 800 450.523, 795.718 439.558, 786.074 429.914 C 774.994 418.834, 760.048 413.984, 743.500 416.099" stroke="none" fill="#3761ad" fill-rule="evenodd"/><path d="M 37.105 1.583 C 21.119 5.881, 8.173 18.504, 2.540 35.285 L 0 42.853 0 259.216 C 0 498.696, -0.486 481.103, 6.476 493.496 C 17.017 512.259, 38.639 522.706, 59.434 519.085 C 79.419 515.605, 93.547 502.935, 100.787 482 C 102.084 478.251, 102.461 468.403, 103.049 423 C 103.697 372.939, 103.927 367.686, 105.869 358.506 C 113.729 321.361, 128.312 303.049, 156.169 295.346 C 165.160 292.860, 189.007 292.823, 197.934 295.281 C 222.157 301.951, 238.003 317.882, 246.896 344.504 C 252.936 362.585, 253.281 366.502, 253.942 424.500 L 254.545 477.500 257.121 484.602 C 264.106 503.862, 279.203 516.356, 298.973 519.237 C 305.946 520.254, 308.318 520.183, 315.223 518.755 C 326.725 516.377, 333.319 512.831, 341.592 504.577 C 349.297 496.889, 353.879 488.750, 355.991 479 C 356.860 474.988, 357.065 459.436, 356.750 421.500 C 356.293 366.510, 355.948 361.738, 350.812 339.500 C 336.499 277.532, 296.783 230.753, 242.523 211.952 C 219.822 204.086, 202.592 201.614, 175.039 202.270 C 149.342 202.881, 142.774 204.494, 119.285 215.956 L 103.070 223.869 102.768 133.185 C 102.435 33.316, 102.810 39.465, 96.248 26.506 C 92.997 20.086, 81.914 9.003, 75.494 5.752 C 64.090 -0.023, 49.120 -1.649, 37.105 1.583 M 414.917 244.874 C 392.311 267.962, 377.433 298.599, 371.881 333.500 C 369.974 345.483, 370.234 372.329, 372.383 385.414 C 378.156 420.571, 393.787 450.843, 418.674 475.063 C 430.358 486.434, 437.898 492.296, 450.173 499.549 C 467.271 509.653, 488.608 517.234, 511 521.161 C 520.744 522.870, 555.969 522.888, 566 521.189 C 574.754 519.706, 590.005 516.119, 591.480 515.195 C 592.041 514.844, 593.104 514.465, 593.842 514.353 C 594.580 514.241, 595.397 513.936, 595.659 513.675 C 595.920 513.413, 586.541 497.783, 574.817 478.940 L 553.500 444.681 540.500 444.446 C 515.318 443.989, 498.306 436.668, 481.822 419.194 C 468.197 404.751, 460.304 385.938, 458.455 363.500 C 457.291 349.377, 461.503 325.477, 467.050 314.719 C 468.123 312.640, 469 310.292, 469 309.501 C 469 308.711, 459.691 293.087, 448.312 274.782 C 436.934 256.477, 426.886 240.094, 425.984 238.374 L 424.343 235.249 414.917 244.874" stroke="none" fill="#5f4a9d" fill-rule="evenodd"/></svg>