<svg xmlns="http://www.w3.org/2000/svg" width="1200" height="360" viewBox="0 0 1200 360" version="1.1"><path d="M 1039.500 64.616 C 1001.964 70.407, 960.195 89.956, 927.750 116.918 C 922.388 121.374, 918 125.449, 918 125.973 C 918 126.496, 919.915 129.274, 922.255 132.145 C 927.526 138.611, 936.485 144.836, 945.748 148.471 L 952.802 151.238 959.151 145.942 C 974.266 133.336, 997.625 120.233, 1016.841 113.583 C 1032.112 108.298, 1044.466 105.986, 1061.020 105.315 C 1084.206 104.374, 1098.464 108.216, 1113.338 119.410 C 1125.394 128.484, 1133.956 140.416, 1138.159 154 C 1141.274 164.070, 1141.257 181.648, 1138.120 193.384 C 1132.879 212.995, 1121.116 232.663, 1104.084 250.291 C 1076.943 278.384, 1041.518 297.442, 1005.131 303.527 C 990.937 305.900, 966.721 305.172, 956.027 302.051 C 931.739 294.961, 914.758 278.134, 909.557 256 C 907.787 248.468, 907.531 232.015, 909.051 223.434 C 910.382 215.916, 914.574 202.908, 917.639 196.783 C 918.938 194.189, 920 191.650, 920 191.142 C 920 190.633, 918.087 189.460, 915.750 188.535 C 908.960 185.847, 897.383 178.249, 890.823 172.176 L 884.767 166.569 882.771 169.035 C 879.409 173.185, 868.213 196.970, 865.135 206.500 C 859.552 223.785, 858.499 230.869, 858.516 251 C 858.531 267.990, 858.752 270.290, 861.223 279.176 C 873.629 323.794, 910.156 352.648, 962.356 359.063 C 981.502 361.415, 1008.450 359.362, 1029.491 353.948 C 1051.068 348.395, 1080.593 335.127, 1099.500 322.486 C 1119.062 309.406, 1139.984 290.497, 1153.146 274 C 1170.035 252.833, 1182.479 228.100, 1188.760 203.217 C 1191.236 193.405, 1191.466 190.853, 1191.482 173 C 1191.498 155.687, 1191.240 152.549, 1189.184 145.022 C 1184.175 126.687, 1176.197 112.236, 1164.116 99.618 C 1139.952 74.378, 1107.664 62.782, 1062.500 63.122 C 1054.800 63.180, 1044.450 63.852, 1039.500 64.616" stroke="none" fill="#93d404" fill-rule="evenodd"/><path d="M 985 1.477 C 927.186 11.095, 882.373 44.834, 867.423 90 C 864.833 97.826, 864.607 99.729, 864.581 114 C 864.555 128.236, 864.773 130.152, 867.251 137.500 C 871.149 149.054, 877.832 159.790, 886.261 168.038 C 910.288 191.549, 944.614 202.796, 983.500 199.897 C 1036.408 195.954, 1083.446 167.191, 1103.535 126.500 C 1108.936 115.559, 1108.844 115.165, 1100 111.365 C 1091.071 107.529, 1079.466 105, 1070.790 105 L 1064.497 105 1061.998 109.750 C 1058.580 116.250, 1045.092 130.121, 1036.884 135.577 C 1027.276 141.964, 1014.477 147.721, 1003.206 150.723 C 990.547 154.096, 967.917 154.562, 956 151.697 C 920.587 143.181, 903.554 113.921, 917.465 85.500 C 926.508 67.026, 947.990 50.451, 973.673 42.132 C 987.348 37.703, 995.228 36.494, 1010 36.560 C 1025.329 36.629, 1033.496 38.226, 1043.900 43.190 C 1050.775 46.470, 1061.135 55.428, 1063.629 60.250 C 1064.928 62.762, 1065.546 63.001, 1070.776 63.008 C 1078.639 63.019, 1093.021 64.675, 1101.831 66.584 C 1105.862 67.458, 1109.414 67.919, 1109.723 67.610 C 1110.870 66.463, 1104.596 51.639, 1100.021 44.689 C 1093.418 34.658, 1088.163 29.025, 1078.878 22.029 C 1066.869 12.980, 1051.841 6.357, 1034.500 2.471 C 1024.522 0.236, 995.916 -0.339, 985 1.477 M 49.804 79.974 C 20.485 86.157, 4.351 106.268, 8.010 132.068 C 9.809 144.753, 14.802 153.019, 24.592 159.517 C 32.574 164.815, 39.574 167.289, 64.368 173.571 C 76.464 176.636, 88.113 180.038, 90.256 181.131 C 96.749 184.443, 98.700 192.701, 94.429 198.798 C 90.528 204.367, 77.943 207.668, 67.174 205.948 C 58.055 204.491, 52.220 201.131, 42.020 191.465 C 32.380 182.329, 30.071 181, 23.836 181 C 15.510 181, 9.968 185.719, 8.004 194.481 C 5.387 206.159, 13.969 218.453, 30.375 226.528 C 43.333 232.906, 52.671 235.111, 69.402 235.742 C 90.803 236.549, 103.367 233.563, 117.162 224.392 C 132.331 214.308, 140.251 196.340, 137.090 179.182 C 133.353 158.901, 118.260 148.045, 82 139.557 C 53.866 132.971, 49 130.360, 49 121.846 C 49 113.384, 56.998 109.504, 73 110.203 C 84.290 110.697, 88.077 112.331, 98.268 121.105 C 107.978 129.466, 114.837 130.838, 122.759 126.006 C 129.161 122.101, 132.412 112.657, 130.059 104.803 C 124.383 85.856, 82.847 73.006, 49.804 79.974 M 198.634 79.586 C 178.845 84.376, 165.018 99.838, 159.808 123 C 157.760 132.106, 157.655 135.429, 157.265 203.130 C 156.978 253.039, 157.185 274.973, 157.971 277.894 C 160.398 286.904, 169.186 292.656, 179.224 291.804 C 186.425 291.193, 191.665 288.463, 194.839 283.669 L 197.500 279.651 198.033 247.076 C 198.326 229.159, 198.664 215.096, 198.783 215.824 C 199.229 218.544, 210.170 228.759, 215.360 231.300 C 222.769 234.928, 227.931 235.947, 239.040 235.976 C 256.665 236.021, 269.467 230.642, 280.917 218.382 C 296.084 202.141, 303.656 175.008, 300.960 146.555 C 297.476 109.791, 279.219 85.049, 251.201 79.121 C 243.432 77.477, 205.977 77.809, 198.634 79.586 M 336.481 79.394 C 331.773 81.445, 327.227 87.286, 326.508 92.208 C 326.162 94.569, 326.026 119, 326.205 146.500 C 326.520 195.070, 326.593 196.688, 328.750 203.072 C 333.721 217.785, 343.951 228.402, 357.749 233.168 C 364.107 235.364, 365.897 235.497, 388.500 235.457 C 408.342 235.421, 413.626 235.104, 419 233.629 C 436.435 228.843, 446.922 220.290, 454.418 204.745 C 462.907 187.140, 464.289 175.625, 463.822 126.423 C 463.500 92.540, 463.497 92.494, 461 87.500 C 457.667 80.833, 452.298 78, 443 78 C 434.809 78, 428.470 80.902, 425.523 86 C 423.604 89.319, 423.471 91.720, 422.936 132.500 C 422.295 181.288, 422.326 181.084, 414.266 190.050 C 400.128 205.774, 377.151 203.960, 369.299 186.500 C 367.677 182.894, 367.451 177.971, 367 136.500 C 366.562 96.187, 366.295 90.129, 364.845 87.500 C 362.701 83.613, 359.216 80.404, 355.685 79.067 C 351.808 77.598, 340.147 77.796, 336.481 79.394 M 532.121 79.127 C 512.720 82.350, 497.172 92.652, 490.345 106.808 C 488.008 111.655, 487.540 114.089, 487.191 123.200 C 486.708 135.840, 488.297 142.238, 493.901 150.212 C 501.327 160.777, 511.918 165.699, 545.202 174.051 C 567.308 179.598, 572.223 181.597, 574.479 185.960 C 580.803 198.189, 565.455 209.028, 546.174 205.948 C 537.044 204.489, 531.227 201.132, 521.790 191.873 C 512.721 182.975, 509.266 181, 502.767 181 C 493.203 181, 487.029 187.870, 487.038 198.500 C 487.042 202.295, 487.758 206.073, 488.987 208.781 C 493.565 218.867, 508.844 228.947, 526.776 233.712 C 535.205 235.952, 538.630 236.306, 552.500 236.375 C 570.521 236.464, 576.264 235.357, 588.757 229.386 C 597.396 225.258, 607.454 216.256, 611.277 209.233 C 612.745 206.534, 614.627 201.441, 615.459 197.913 C 619.680 180.004, 614.220 165.123, 599.681 154.912 C 590.730 148.626, 581.475 145.128, 559.148 139.591 C 532.284 132.929, 528 130.542, 528 122.235 C 528 113.351, 535.702 109.491, 552 110.203 C 563.145 110.691, 566.408 112.070, 576.209 120.437 C 586.422 129.155, 591.761 130.653, 599.729 127.036 C 610.355 122.213, 612.771 106.934, 604.447 97.209 C 592.443 83.185, 558.611 74.727, 532.121 79.127 M 646.450 79.357 C 642.433 81.172, 638.328 86.158, 637.044 90.781 C 636.401 93.097, 636.009 112.346, 636.006 141.792 C 636.001 181.008, 636.270 190.401, 637.581 196.792 C 641.792 217.319, 653.868 229.947, 673.750 234.613 C 679.212 235.895, 684.604 236.105, 702 235.713 C 726.174 235.169, 733.255 233.796, 744.652 227.442 C 759.491 219.168, 770.003 200.210, 772.896 176.500 C 774.366 164.456, 774.354 96.818, 772.881 91.500 C 770.328 82.283, 764.086 78.059, 752.962 78.022 C 743.712 77.991, 738.336 80.828, 735 87.500 L 732.500 92.500 732 135.500 C 731.436 183.966, 731.721 182.108, 723.524 190.871 C 709.739 205.608, 687.340 203.634, 679.595 187 C 677.591 182.695, 677.478 180.527, 677 137 C 676.442 86.200, 676.522 86.789, 669.435 81.382 C 666.093 78.832, 664.728 78.470, 657.579 78.239 C 652.336 78.070, 648.429 78.462, 646.450 79.357 M 222.723 112.054 C 210.531 114.065, 202.180 123.565, 198.396 139.729 C 196.154 149.306, 196.913 170.025, 199.834 179 C 205.515 196.452, 218.693 205.282, 234.242 202.054 C 249.909 198.801, 258.597 184.970, 259.728 161.481 C 260.404 147.436, 258.837 137.941, 254.367 129.007 C 247.790 115.860, 236.457 109.789, 222.723 112.054" stroke="none" fill="#04635b" fill-rule="evenodd"/></svg>