<svg xmlns="http://www.w3.org/2000/svg" width="640" height="197" viewBox="0 0 640 197" version="1.1"><path d="M 100 34.702 C 94.822 35.592, 82.366 40.254, 78.946 42.581 C 76.992 43.912, 74.919 45, 74.341 45 C 72.647 45, 60.614 56.473, 59.007 59.620 C 58.198 61.204, 56.173 64.144, 54.506 66.152 C 51.401 69.894, 49.012 73.970, 43.751 84.500 C 39.361 93.288, 38.147 96.154, 37.397 99.500 C 37.027 101.150, 36.224 103.131, 35.612 103.903 C 33.937 106.018, 34.118 131.522, 35.821 133.199 C 36.913 134.275, 36.999 133.981, 36.321 131.500 C 34.609 125.244, 35.414 109.891, 37.867 102 C 43.080 85.227, 56.188 63.782, 68.086 52.558 C 101.863 20.694, 156.947 34.234, 171.596 78 C 173.550 83.837, 174.241 103.387, 172.780 111.500 L 172.059 115.500 173.454 112 C 174.342 109.770, 174.875 104.324, 174.924 96.997 C 175.011 83.848, 173.337 76.506, 167.871 66.055 C 163.998 58.651, 153.557 47.017, 148.171 44.104 C 133.555 36.200, 125.347 33.943, 111.936 34.136 C 106.746 34.211, 101.375 34.466, 100 34.702 M 105.233 62.250 C 104.677 62.938, 94.896 79.925, 83.498 100 C 72.100 120.075, 62.139 137.512, 61.364 138.750 C 59.962 140.988, 59.986 141, 65.727 140.962 L 71.500 140.925 93.750 101.649 C 105.988 80.047, 116 62.064, 116 61.687 C 116 60.455, 106.274 60.964, 105.233 62.250 M 135.683 64.750 C 132.031 70.599, 94.132 137.492, 93.420 139.347 C 92.878 140.759, 93.566 140.996, 98.143 140.974 L 103.500 140.949 125.750 101.667 C 137.988 80.061, 148 62.073, 148 61.692 C 148 61.312, 145.756 61, 143.013 61 C 138.332 61, 137.881 61.231, 135.683 64.750 M 215.193 73.750 L 215.385 80.500 215.741 74.234 L 216.096 67.969 243.798 68.234 L 271.500 68.500 271.500 74.252 C 271.500 77.415, 271.837 80.003, 272.250 80.002 C 272.663 80.001, 273 77.075, 273 73.500 L 273 67 244 67 L 215 67 215.193 73.750 M 294.275 67.742 L 301.051 68.093 300.775 102.547 C 300.624 121.497, 300.837 137.001, 301.250 137 C 301.663 137, 302 121.250, 302 102 L 302 67 294.750 67.196 L 287.500 67.392 294.275 67.742 M 331.163 67.717 C 327.589 68.397, 318.992 77.154, 319.039 80.066 C 319.076 82.363, 319.152 82.331, 320.394 79.481 C 322.826 73.899, 329.108 69.566, 337.500 67.681 C 340.129 67.091, 334.280 67.124, 331.163 67.717 M 350 68.012 C 352.475 68.540, 357.057 70.236, 360.183 71.782 C 366.573 74.942, 366.892 74.219, 360.803 70.376 C 358.081 68.658, 354.945 67.706, 351.137 67.443 L 345.500 67.053 350 68.012 M 399.934 70.314 C 396.375 72.136, 392.297 74.794, 390.872 76.219 C 387.642 79.449, 383.986 85.283, 384.042 87.118 C 384.065 87.878, 384.879 87.009, 385.850 85.188 C 390.104 77.208, 398.707 70.836, 408.500 68.409 C 413.247 67.233, 413.320 67.166, 409.952 67.085 C 407.768 67.033, 403.918 68.273, 399.934 70.314 M 424 67.857 C 425.925 68.295, 428.625 69.007, 430 69.439 C 431.807 70.007, 432.211 69.919, 431.460 69.122 C 430.887 68.515, 428.187 67.804, 425.460 67.540 C 421.433 67.151, 421.158 67.211, 424 67.857 M 475.530 70.250 C 474.778 72.037, 473.149 75.750, 471.910 78.500 C 468.946 85.082, 467.012 90.345, 467.412 90.745 C 467.686 91.019, 471.293 83.028, 476.661 70.250 C 477.412 68.463, 477.773 67, 477.462 67 C 477.152 67, 476.283 68.463, 475.530 70.250 M 536.235 67.741 L 542.969 68.091 543.251 96.795 L 543.532 125.500 543.766 96.250 L 544 67 536.750 67.196 L 529.500 67.392 536.235 67.741 M 598.237 67.741 L 604.974 68.091 605.250 102.795 L 605.527 137.500 605.763 102.250 L 606 67 598.750 67.196 L 591.500 67.392 598.237 67.741 M 433 70.401 C 433 70.769, 438.400 74.306, 442 76.296 C 442.825 76.753, 441.700 75.529, 439.500 73.578 C 436.067 70.532, 433 69.034, 433 70.401 M 493.546 76.700 C 496.105 82.485, 497 83.992, 497 82.513 C 497 81.355, 492.038 71, 491.483 71 C 491.231 71, 492.160 73.565, 493.546 76.700 M 363.538 81.538 C 359.966 86.222, 360.721 86.977, 364.385 82.385 C 365.931 80.447, 366.989 78.656, 366.737 78.404 C 366.485 78.152, 365.046 79.562, 363.538 81.538 M 335.235 80.037 C 332.087 81.301, 330.591 85.599, 332.063 89.153 C 332.915 91.209, 334.636 92.468, 338.646 93.969 C 341.632 95.086, 344.621 95.977, 345.288 95.948 C 345.954 95.919, 344.025 94.960, 341 93.816 C 337.975 92.672, 334.938 91.291, 334.250 90.746 C 332.151 89.083, 332.844 84.772, 335.687 81.805 C 338.608 78.756, 338.591 78.689, 335.235 80.037 M 439.496 82.723 L 436.713 86.500 440.055 83.282 C 441.893 81.512, 443.146 79.812, 442.838 79.505 C 442.531 79.197, 441.027 80.645, 439.496 82.723 M 221.750 80.737 C 224.637 80.939, 229.363 80.939, 232.250 80.737 C 235.137 80.535, 232.775 80.370, 227 80.370 C 221.225 80.370, 218.863 80.535, 221.750 80.737 M 250.234 108.750 L 250.468 137.500 250.749 109.286 L 251.031 81.072 260.766 80.745 L 270.500 80.419 260.250 80.209 L 250 80 250.234 108.750 M 481.689 87.109 C 479.857 91.773, 480.208 93.833, 482.120 89.637 C 483.048 87.598, 483.613 87.263, 484.657 88.130 C 486.335 89.523, 486.329 88.220, 484.643 85.182 C 483.377 82.900, 483.331 82.930, 481.689 87.109 M 497.065 84.500 C 497.097 85.050, 498.201 87.750, 499.519 90.500 C 501.228 94.068, 501.735 94.641, 501.288 92.500 C 500.677 89.573, 496.951 82.514, 497.065 84.500 M 381.977 91.042 C 381.376 92.166, 381.023 94.753, 381.192 96.792 C 381.479 100.248, 381.571 100.109, 382.542 94.750 C 383.116 91.588, 383.469 89, 383.328 89 C 383.186 89, 382.579 89.919, 381.977 91.042 M 486.035 91.059 C 486.016 91.916, 486.661 93.491, 487.468 94.559 C 489.348 97.045, 489.370 95.272, 487.500 92 C 486.584 90.398, 486.058 90.060, 486.035 91.059 M 465.028 94.426 C 463.542 98.335, 463.836 98.950, 465.618 95.662 C 466.464 94.100, 466.909 92.576, 466.606 92.273 C 466.304 91.970, 465.593 92.939, 465.028 94.426 M 352.320 97.967 C 364.269 101.785, 369 107.170, 369 116.951 C 369 122.287, 367.302 126.721, 363.633 130.970 C 361.943 132.926, 361.892 133.137, 363.386 131.984 C 367.803 128.577, 370 123.334, 370 116.200 C 370 109.776, 369.778 109.101, 366.353 105.099 C 362.395 100.475, 353.901 95.966, 349.314 96.054 C 347.226 96.094, 348.001 96.587, 352.320 97.967 M 394.767 99.133 C 394.514 100.857, 394.642 103.669, 395.051 105.383 C 395.646 107.875, 395.816 107.246, 395.898 102.250 C 396.008 95.500, 395.504 94.111, 394.767 99.133 M 502.067 96.500 C 502.074 98.266, 504.926 102.638, 504.965 100.941 C 504.984 100.084, 504.339 98.509, 503.532 97.441 C 502.724 96.374, 502.065 95.950, 502.067 96.500 M 489.571 99 C 489.930 100.375, 490.624 101.927, 491.112 102.450 C 492.540 103.977, 492.102 101.786, 490.423 99 L 488.917 96.500 489.571 99 M 461.760 102.244 C 456.630 112.945, 449.812 129.145, 450.253 129.587 C 450.492 129.825, 453.682 123.190, 457.341 114.841 C 461 106.492, 463.843 99.510, 463.658 99.324 C 463.473 99.139, 462.619 100.453, 461.760 102.244 M 474.625 103.979 C 473.731 106.213, 473 108.256, 473 108.520 C 473 108.784, 477.725 109, 483.500 109 C 494.294 109, 495.393 108.533, 492.919 105 C 492.097 103.826, 492.006 103.989, 492.502 105.750 C 493.126 107.970, 493.008 108, 483.618 108 L 474.102 108 475.610 104.392 C 476.439 102.407, 476.922 100.589, 476.684 100.350 C 476.445 100.112, 475.519 101.745, 474.625 103.979 M 505 103.295 C 505 103.975, 515.145 126.475, 515.672 126.965 C 516.587 127.814, 515.022 122.875, 512.991 118.500 C 506.610 104.756, 505 101.693, 505 103.295 M 381.423 109.337 C 381.616 111.997, 382.325 114.697, 382.999 115.337 C 383.958 116.247, 384.054 115.956, 383.439 114 C 383.007 112.625, 382.298 109.925, 381.863 108 C 381.169 104.930, 381.115 105.095, 381.423 109.337 M 350.500 111.170 C 351.600 111.781, 353.197 112.779, 354.049 113.390 C 354.901 114, 354.538 113.487, 353.243 112.250 C 351.948 111.013, 350.351 110.014, 349.694 110.030 C 349.037 110.047, 349.400 110.560, 350.500 111.170 M 396 110.537 C 396 110.917, 396.979 112.970, 398.176 115.100 C 400.630 119.465, 406.019 123.571, 410.500 124.488 C 413.477 125.097, 413.473 125.088, 410 123.258 C 406.366 121.343, 403.437 118.705, 398.750 113.122 C 397.238 111.320, 396 110.157, 396 110.537 M 170.267 119.081 C 169.589 120.889, 169.215 122.549, 169.436 122.770 C 170.149 123.483, 172.137 118.946, 171.813 117.344 C 171.629 116.430, 170.994 117.144, 170.267 119.081 M 355.552 118.835 C 354.605 121.820, 350.099 124.366, 344.500 125.081 L 339.500 125.718 343.782 125.859 C 349.577 126.050, 354.768 123.741, 356.034 120.410 C 356.596 118.932, 356.859 117.526, 356.619 117.286 C 356.379 117.046, 355.899 117.743, 355.552 118.835 M 384.004 117.600 C 383.998 119.165, 389.203 126.047, 392.614 128.986 C 394.661 130.750, 394.439 130.314, 391.848 127.486 C 389.839 125.294, 387.253 121.925, 386.101 120 C 384.950 118.075, 384.006 116.995, 384.004 117.600 M 430.405 119.133 C 429.357 120.305, 426.700 122.113, 424.500 123.150 C 421.305 124.655, 421.070 124.922, 423.333 124.477 C 426.317 123.891, 433.382 119.809, 434.475 118.041 C 435.680 116.090, 432.317 116.993, 430.405 119.133 M 439.233 120.700 C 441.268 122.735, 443.229 124.104, 443.591 123.742 C 444.510 122.823, 438.834 117, 437.020 117 C 436.103 117, 436.952 118.419, 439.233 120.700 M 318.687 120.805 C 315.524 124.107, 315.055 126.165, 318.093 123.416 C 320.053 121.642, 322.494 118, 321.722 118 C 321.531 118, 320.165 119.262, 318.687 120.805 M 326.500 119.644 C 329.078 121.682, 337.029 125.305, 337.622 124.712 C 337.872 124.461, 336.070 123.313, 333.617 122.160 C 331.164 121.007, 328.870 119.599, 328.520 119.032 C 328.169 118.464, 327.121 118.014, 326.191 118.032 C 324.728 118.059, 324.770 118.277, 326.500 119.644 M 466.954 122.086 C 465.320 125.140, 466.448 125.491, 468.388 122.531 C 469.300 121.139, 469.602 120, 469.058 120 C 468.515 120, 467.568 120.939, 466.954 122.086 M 439 129.262 C 435.053 132.826, 434.908 133.090, 437.817 131.413 C 441.317 129.394, 444.602 126.258, 443.911 125.594 C 443.685 125.377, 441.475 127.028, 439 129.262 M 317.861 129.033 C 319.159 130.115, 320.682 131, 321.246 131 C 321.809 131, 321.126 130.100, 319.727 129 C 316.441 126.415, 314.754 126.445, 317.861 129.033 M 516.067 128.500 C 516.074 130.266, 518.926 134.638, 518.965 132.941 C 518.984 132.084, 518.339 130.509, 517.532 129.441 C 516.724 128.374, 516.065 127.950, 516.067 128.500 M 161.516 135.976 C 158.674 140.077, 152.860 145.782, 147.500 149.728 C 145.850 150.943, 145.025 151.951, 145.667 151.968 C 147.088 152.007, 162.667 137.490, 164.122 134.772 C 166.069 131.135, 164.307 131.949, 161.516 135.976 M 40.612 142.500 C 41.549 145.209, 44.077 148.044, 46.500 149.105 C 47.600 149.586, 49.625 150.709, 51 151.599 C 52.375 152.490, 52.150 152.172, 50.500 150.893 C 48.850 149.613, 45.795 146.751, 43.710 144.533 C 41.364 142.036, 40.184 141.262, 40.612 142.500" stroke="none" fill="#f6f5f7" fill-rule="evenodd"/><path d="M 96.381 36.977 C 75.017 42.578, 58.354 58.235, 44.672 85.563 C 37.634 99.621, 35.500 107.633, 35.500 120 C 35.500 129.200, 35.819 131.181, 38.081 136.002 C 44.474 149.629, 58.682 157.891, 82 161.538 C 121.715 167.752, 154.331 153.960, 167.656 125.319 C 172.795 114.272, 174.295 106.399, 173.715 93.500 C 172.940 76.231, 167.903 64.658, 156.088 52.999 C 140.721 37.835, 117.191 31.521, 96.381 36.977 M 105.233 62.250 C 104.677 62.938, 94.896 79.925, 83.498 100 C 72.100 120.075, 62.139 137.512, 61.364 138.750 C 59.962 140.988, 59.986 141, 65.727 140.962 L 71.500 140.925 93.750 101.649 C 105.988 80.047, 116 62.064, 116 61.687 C 116 60.455, 106.274 60.964, 105.233 62.250 M 135.683 64.750 C 132.031 70.599, 94.132 137.492, 93.420 139.347 C 92.878 140.759, 93.566 140.996, 98.143 140.974 L 103.500 140.949 125.750 101.667 C 137.988 80.061, 148 62.073, 148 61.692 C 148 61.312, 145.756 61, 143.013 61 C 138.332 61, 137.881 61.231, 135.683 64.750 M 335.718 68.092 C 328.300 69.838, 322.232 74.577, 320.064 80.315 C 318.528 84.380, 318.757 92.629, 320.499 95.998 C 323.433 101.672, 327.690 103.816, 347.098 109.397 C 353.663 111.285, 356.333 113.821, 356.333 118.169 C 356.333 126.909, 340.768 128.506, 328.699 121.004 C 326.041 119.352, 323.560 118.008, 323.184 118.018 C 322.808 118.028, 321.002 119.840, 319.172 122.044 L 315.843 126.052 318.172 128.028 C 319.452 129.114, 323.377 131.406, 326.894 133.121 C 334.225 136.696, 346.430 138.066, 353.599 136.118 C 363.237 133.499, 368.955 126.450, 368.984 117.151 C 369.017 106.376, 363.612 101, 348.710 96.986 C 336.425 93.677, 333.332 92.216, 332.046 89.112 C 330.508 85.399, 332.157 81.276, 335.732 79.895 C 340.162 78.184, 349.104 79.298, 355.111 82.309 L 360.500 85.011 363.735 81.256 C 365.514 79.190, 366.977 76.966, 366.985 76.313 C 367.007 74.580, 355.378 69.174, 349.114 68.005 C 342.913 66.848, 340.945 66.861, 335.718 68.092 M 408.500 68.409 C 394.200 71.952, 384.704 82.090, 382.068 96.625 C 379.378 111.461, 387.277 127.060, 400.858 133.730 C 405.937 136.223, 407.548 136.500, 417 136.498 C 426.685 136.495, 427.902 136.273, 432.677 133.628 C 435.525 132.051, 439.100 129.461, 440.622 127.872 L 443.390 124.984 439.500 121 C 435.698 117.107, 435.564 117.058, 433.555 118.824 C 422.448 128.589, 405.220 127.107, 398.549 115.814 C 389.037 99.711, 398.923 79.131, 416.221 79.028 C 420.945 79, 431.049 82.653, 432.431 84.888 C 433.807 87.115, 436.905 85.907, 440.071 81.911 L 443.309 77.822 440.405 75.482 C 435.958 71.899, 429.837 69.107, 424.006 68.001 C 417.481 66.764, 414.862 66.833, 408.500 68.409 M 476.481 70.700 C 475.633 72.790, 468.934 88.225, 461.595 105 C 454.256 121.775, 448.446 135.838, 448.684 136.250 C 448.923 136.662, 451.748 137, 454.963 137 L 460.807 137 464.250 128.750 C 466.144 124.213, 468.212 120.545, 468.846 120.600 C 469.481 120.655, 476.668 120.768, 484.818 120.850 L 499.636 121 502.939 129 L 506.242 137 512.621 137 C 516.129 137, 519 136.647, 519 136.215 C 519 135.498, 502.267 96.524, 493.148 76 L 489.371 67.500 483.697 67.200 L 478.023 66.901 476.481 70.700 M 216 73.984 L 216 80 226.484 80 L 236.969 80 237.234 108.250 L 237.500 136.500 243.750 136.798 L 250 137.095 250 108.582 L 250 80.068 260.750 79.784 L 271.500 79.500 271.500 74 L 271.500 68.500 243.750 68.234 L 216 67.968 216 73.984 M 288 102.548 L 288 137.095 294.250 136.798 L 300.500 136.500 300.763 102.250 L 301.026 68 294.513 68 L 288 68 288 102.548 M 530.237 102.250 L 530.500 136.500 554.500 136.500 L 578.500 136.500 578.500 131 L 578.500 125.500 560.750 125.227 L 543 124.954 543 96.477 L 543 68 536.487 68 L 529.974 68 530.237 102.250 M 592.237 102.250 L 592.500 136.500 598.750 136.798 L 605 137.095 605 102.548 L 605 68 598.487 68 L 591.974 68 592.237 102.250 M 478.756 94.294 C 476.190 100.457, 473.797 106.287, 473.438 107.250 C 472.843 108.848, 473.709 109, 483.393 109 C 489.227 109, 494 108.590, 494 108.089 C 494 107.281, 484.232 83.899, 483.652 83.319 C 483.525 83.192, 481.322 88.131, 478.756 94.294" stroke="none" fill="#3a3562" fill-rule="evenodd"/></svg>