<svg xmlns="http://www.w3.org/2000/svg" width="1280" height="792" viewBox="0 0 1280 792" version="1.1"><path d="M 231.449 705.967 C 222.737 732.385, 215.351 754, 215.036 754 C 214.720 754, 207.755 733.087, 199.557 707.527 C 191.359 681.968, 184.358 660.579, 183.998 659.996 C 183.578 659.317, 178.834 659.038, 170.767 659.219 L 158.190 659.500 179.598 721.500 C 191.372 755.600, 201.716 785.413, 202.585 787.750 L 204.165 792 214.474 792 L 224.782 792 229.743 777.750 C 232.472 769.913, 239.571 749.212, 245.520 731.750 C 251.468 714.288, 256.599 700, 256.921 700 C 257.243 700, 264.544 720.587, 273.144 745.750 L 288.780 791.500 299.497 791.500 L 310.214 791.500 332.971 725.500 L 355.729 659.500 343.697 659.218 C 337.079 659.063, 331.337 659.288, 330.938 659.718 C 330.538 660.148, 324.065 679.625, 316.554 703 C 309.042 726.375, 302.166 747.750, 301.274 750.500 L 299.653 755.500 283.533 707 L 267.413 658.500 257.351 658.217 L 247.289 657.933 231.449 705.967 M 384 725 L 384 791 396 791 L 408 791 408 725 L 408 659 396 659 L 384 659 384 725 M 446 725 L 446 791 457.990 791 L 469.980 791 470.240 745.033 L 470.500 699.066 506 744.978 L 541.500 790.890 551.750 790.945 L 562 791 562 725 L 562 659 550.510 659 L 539.020 659 538.760 704.027 L 538.500 749.055 503.621 704.027 L 468.741 659 457.371 659 L 446 659 446 725 M 599 725 L 599 791.144 632.250 790.805 L 665.500 790.467 673.500 787.676 C 694.545 780.333, 709.893 765.339, 716.159 746 C 719.099 736.926, 719.844 717.899, 717.608 708.967 C 712.035 686.700, 696.131 669.860, 673.500 662.263 C 665.568 659.601, 665.219 659.575, 632.250 659.217 L 599 658.856 599 725 M 730 670 L 730 681 751 681 L 772 681 772 736 L 772 791 784 791 L 796 791 796 736 L 796 681 817 681 L 838 681 838 670 L 838 659 784 659 L 730 659 730 670 M 865 725 L 865 791 877 791 L 889 791 889 768 L 889 745 903.285 745 L 917.569 745 933.504 767.615 C 942.268 780.054, 949.925 790.418, 950.520 790.646 C 951.114 790.874, 957.570 790.935, 964.867 790.780 L 978.132 790.500 960.681 766.051 L 943.230 741.602 950.993 737.825 C 965.420 730.805, 972.798 719.649, 973.757 703.409 C 974.259 694.900, 972.705 687.262, 968.989 679.979 C 966.277 674.662, 959.340 668.200, 952.802 664.900 C 942.114 659.505, 937.842 659.031, 899.750 659.015 L 865 659 865 725 M 1006 725 L 1006 791 1055.500 791 L 1105 791 1105 780.500 L 1105 770 1067.500 770 L 1030 770 1030 752.500 L 1030 735 1063 735 L 1096 735 1096 724.500 L 1096 714 1063 714 L 1030 714 1030 697 L 1030 680 1067 680 L 1104 680 1104 669.500 L 1104 659 1055 659 L 1006 659 1006 725 M 623 725 L 623 770 634.750 769.992 C 659.960 769.976, 670.895 766.942, 681.339 757.064 C 690.047 748.828, 693.931 738.925, 693.976 724.839 C 694.033 706.846, 685.067 692.125, 669.680 684.946 C 662.450 681.574, 651.308 680.021, 634.250 680.008 L 623 680 623 725 M 889 702.432 L 889 724 908.818 724 C 931.179 724, 936.659 722.995, 942.565 717.809 C 947.758 713.249, 949.367 709.510, 949.367 702 C 949.367 692.750, 946.365 687.829, 938 683.367 C 934.937 681.733, 931.657 681.460, 911.750 681.182 L 889 680.865 889 702.432" stroke="none" fill="#9c9c9c" fill-rule="evenodd"/><path d="M 1040 1.122 C 978.101 8.241, 914.157 33.521, 864.500 70.505 C 833.955 93.255, 816.297 114.853, 812.830 133.704 C 810.664 145.482, 817.156 156.452, 829.267 161.478 L 833.034 163.041 834.043 160.271 C 838.947 146.813, 854.433 131.404, 880 114.543 C 923.420 85.908, 975.436 65.304, 1026.935 56.342 C 1052.679 51.862, 1086.302 51.973, 1104.747 56.599 C 1137.117 64.717, 1161.889 89.663, 1167.047 119.337 C 1169.009 130.621, 1167.864 148.928, 1164.598 158.500 C 1160.831 169.539, 1154.049 180.037, 1144.543 189.542 C 1134.780 199.303, 1123.544 206.899, 1106.976 214.937 C 1095.156 220.671, 1088.415 223.040, 1045.500 236.543 C 1023.148 243.576, 1013.072 247.468, 996.500 255.473 C 975.528 265.604, 962.052 276.877, 960.402 285.669 C 959.898 288.357, 960.164 289.401, 961.629 290.478 C 965.299 293.175, 976.398 298.261, 984.880 301.133 C 1003.108 307.305, 1010.299 308.139, 1070 311.006 C 1095.119 312.213, 1109.441 313.957, 1123.838 317.562 C 1147.035 323.370, 1163.783 332.694, 1178.105 347.773 C 1217.385 389.131, 1210.081 453.312, 1161.586 492.928 C 1128.957 519.583, 1084.775 534, 1035.717 534 C 988.993 534, 950.388 520.705, 924.152 495.579 C 899.302 471.780, 886.674 436.860, 892.579 408.270 C 897.117 386.301, 910.588 366.064, 927.510 355.794 C 946.462 344.292, 969.354 343.633, 988.750 354.031 C 992.737 356.168, 996 357.591, 996 357.191 C 996 355.531, 986.245 345.495, 980.107 340.840 C 968.420 331.977, 952.857 325.653, 936 322.919 C 926.490 321.376, 905.792 321.663, 896.390 323.468 C 849.403 332.485, 815.691 370.140, 809.966 420 C 806.891 446.783, 815.035 480.517, 830.729 506 C 869.128 568.351, 947.619 603.392, 1042.841 600.694 C 1085.658 599.480, 1120.930 590.874, 1158.500 572.472 C 1227.906 538.476, 1270.206 481.780, 1278.953 411.026 C 1280.456 398.860, 1280.234 373.097, 1278.529 362 C 1272.013 319.592, 1250.441 287.609, 1205.686 254 C 1196.530 247.125, 1189.031 241.172, 1189.020 240.771 C 1189.009 240.370, 1193.155 233.845, 1198.234 226.271 C 1219.786 194.128, 1230.070 165.565, 1231.635 133.500 C 1233.371 97.945, 1221.634 67.155, 1197.136 42.999 C 1173.629 19.820, 1142.387 6.302, 1101.191 1.483 C 1087.393 -0.131, 1052.676 -0.336, 1040 1.122 M 370.255 70.503 C 338.329 77.839, 316.211 105.014, 328.967 121.231 C 333.855 127.445, 352.314 131.259, 367.602 129.213 C 395.153 125.527, 422 107.278, 422 92.236 C 422 84.182, 412.871 74.886, 401.545 71.405 C 394.395 69.208, 377.954 68.734, 370.255 70.503 M 1036.288 82.031 C 984.865 86.977, 927.122 106.817, 882.407 134.902 C 864.557 146.115, 848 160.819, 848 165.461 C 848 166.179, 849.237 167.029, 850.750 167.348 C 857.165 168.705, 889.963 170.052, 940 171.015 C 969.425 171.581, 996.875 172.466, 1001 172.983 C 1018.984 175.233, 1029.126 178.988, 1029.801 183.646 C 1030.268 186.858, 1022.824 192.869, 997.883 209.421 C 985.572 217.590, 971.867 227.100, 967.427 230.553 C 953.639 241.277, 945.384 251.780, 943.664 260.785 C 942.945 264.545, 944.503 272.938, 946.401 275.533 C 947.557 277.114, 947.899 276.839, 949.882 272.744 C 959.494 252.888, 999.473 229.271, 1059.500 207.989 C 1095.093 195.369, 1109.318 187.829, 1120.910 175.437 C 1133.312 162.179, 1138.963 144.142, 1135.654 128.374 C 1131.141 106.865, 1114.137 91.221, 1087.374 83.955 C 1078.269 81.483, 1052.197 80.501, 1036.288 82.031 M 437.775 102.216 C 435.609 129.192, 400.966 155.017, 367 154.976 C 350.455 154.955, 334.703 149.479, 324.950 140.357 C 319.953 135.682, 319.873 135.649, 320.539 138.548 C 320.911 140.172, 322.943 145.135, 325.053 149.577 C 331.278 162.683, 343.603 173.157, 359.321 178.699 C 368.111 181.798, 385.535 182.934, 395.268 181.042 C 422.781 175.694, 442.923 156.024, 446.996 130.524 C 448.617 120.380, 445.188 104.159, 440.094 97.868 C 438.320 95.677, 438.296 95.723, 437.775 102.216 M 21.324 150.439 C 12.847 153.090, 5.644 159.304, 2.373 166.787 C -0.386 173.100, -0.576 189.620, 1.967 201.958 C 6.373 223.335, 15.367 247.373, 31.143 279.945 C 44.563 307.651, 60.076 332.670, 77.063 354 C 93.383 374.493, 107.132 385.289, 134.453 399.062 C 161.190 412.542, 185.136 418.907, 212.276 419.750 C 249.452 420.905, 267.713 414.745, 305.500 388.306 C 321.334 377.227, 327.251 373.698, 337.060 369.485 C 349.118 364.307, 359.847 362, 371.877 362 C 383.976 362, 392.298 363.757, 402.500 368.466 C 416.645 374.996, 426.710 384.613, 468.986 432 C 499.025 465.671, 505.347 472.139, 518.081 482.229 C 544.378 503.064, 562.214 511.048, 586 512.629 C 641.170 516.298, 704.512 467.681, 764.361 375.732 C 777.287 355.873, 785.520 341.337, 795.359 321 C 815.278 279.832, 823 248.836, 818.919 226.434 C 818.325 223.170, 817.464 220.112, 817.007 219.638 C 816.550 219.163, 812.559 225.913, 808.139 234.638 C 769.513 310.881, 717.182 365.947, 667.767 382.346 C 643.375 390.441, 618.221 390.411, 595.500 382.260 C 565.916 371.647, 543.523 352.395, 491.031 292.450 C 466.226 264.122, 439.357 237.371, 430.500 232.184 C 406.030 217.855, 377.254 217.373, 346.251 230.775 C 332.682 236.641, 324.684 241.499, 302.362 257.437 C 268.774 281.419, 256.757 287.615, 237.790 290.728 C 216.005 294.304, 190.140 288.460, 169.113 275.212 C 146.141 260.737, 97.452 212.078, 71.310 177.469 C 59.943 162.421, 50.229 154.420, 39.145 150.975 C 31.877 148.716, 27.277 148.578, 21.324 150.439 M 772.755 202.587 C 759.291 206.922, 749.528 214.404, 722 241.485 C 695.654 267.403, 690.199 272.314, 674 284.705 C 645.245 306.698, 618.196 320.264, 592.792 325.432 C 588.553 326.294, 583.772 327, 582.167 327 C 580.563 327, 577.828 327.284, 576.090 327.632 C 573.005 328.249, 572.972 328.312, 574.715 330.287 C 578.176 334.208, 592.536 344.247, 600.187 348.094 C 613.179 354.626, 621.416 356.509, 636.500 356.393 C 651.993 356.273, 661.326 353.922, 677.809 345.986 C 710.034 330.472, 745.288 297.191, 778.499 250.931 C 790.014 234.892, 806.994 208.242, 806.998 206.204 C 806.999 205.491, 804.638 203.808, 801.750 202.464 C 794.469 199.074, 783.522 199.121, 772.755 202.587 M 1081.377 338.168 C 1084.325 348.695, 1083.915 366.320, 1080.497 376.008 C 1074.293 393.591, 1058.814 407.893, 1040 413.424 C 1033.763 415.258, 1011.870 417.411, 1008.935 416.479 C 1007.388 415.988, 1006.997 414.926, 1006.983 411.183 C 1006.958 404.411, 1004.536 393.989, 1001.681 388.369 C 993.512 372.285, 977.651 363.294, 959.019 364.185 C 951.333 364.552, 949.220 365.083, 942.839 368.249 C 918.506 380.323, 906.559 410.755, 915.145 438.792 C 919.835 454.106, 930.106 469.187, 943.026 479.731 C 951.633 486.755, 971.008 496.324, 983.010 499.478 C 1011.155 506.874, 1045.409 506.912, 1075.500 499.580 C 1118.037 489.216, 1150.981 464.174, 1162.202 433.674 C 1169.242 414.541, 1165.896 387.576, 1154.395 370.744 C 1142.172 352.854, 1118.776 341.216, 1085.612 336.527 C 1080.844 335.853, 1080.740 335.893, 1081.377 338.168 M 365.500 384.455 C 351.203 387.058, 343.520 391.235, 314.353 412.268 C 296.757 424.957, 276.787 436.877, 265 441.728 C 254.934 445.870, 241.199 448.702, 224.049 450.171 C 194.353 452.714, 159.956 447.108, 129.685 434.791 C 124.286 432.594, 119.629 431.037, 119.336 431.331 C 117.954 432.713, 140.281 461.163, 151.734 472.614 C 166.878 487.755, 183.510 498.109, 201.573 503.639 C 209.652 506.112, 212.019 506.378, 226.500 506.436 C 245.077 506.510, 251.060 505.129, 266.415 497.220 C 280.843 489.787, 301.931 473.138, 317.546 456.850 C 326.492 447.517, 348.895 421.800, 360.536 407.500 C 365.460 401.450, 372.291 393.730, 375.715 390.346 C 380.439 385.675, 381.566 384.047, 380.388 383.596 C 378.143 382.734, 373.473 383.003, 365.500 384.455" stroke="none" fill="#fc7433" fill-rule="evenodd"/></svg>